#N canvas 827 239 527 327 12;
#X obj 815 138 s param_create;
#X obj 815 112 symbol \$1;
#X obj 364 260 s param_range;
#X obj 365 142 symbol \$1;
#X obj 365 112 t b b b;
#X obj 365 15 loadbang;
#X obj 365 41 t b b b;
#X obj 493 235 list prepend \$1;
#X obj 493 261 s param_mode;
#X obj 493 112 symbol \$2;
#X obj 383 173 \$3;
#X obj 408 201 \$4;
#X obj 493 190 1;
#X obj 572 190 2;
#X obj 640 190 3;
#X obj 715 190 4;
#X obj 364 234 pack s f f;
#X obj 493 163 route float;
#X obj 572 163 route int;
#X obj 640 163 route log;
#X obj 715 163 route exp;
#X obj 63 15 inlet;
#X obj 19 284 outlet;
#X obj 175 89 list prepend \$1;
#X obj 175 115 s param;
#X obj 19 115 r \$1;
#X obj 77 284 s <-\$1;
#X obj 116 15 r \$1<-;
#X obj 63 115 v \$1;
#X obj 19 152 !=;
#X obj 19 178 b, f 4;
#X obj 19 231 v \$1;
#X obj 63 56 t b f b, f 35;
#X obj 19 204 spigot;
#X obj 112 115 1;
#X obj 287 115 0;
#X connect 1 0 0 0;
#X connect 3 0 16 0;
#X connect 4 0 3 0;
#X connect 4 1 10 0;
#X connect 4 2 11 0;
#X connect 5 0 6 0;
#X connect 6 0 4 0;
#X connect 6 1 9 0;
#X connect 6 2 1 0;
#X connect 7 0 8 0;
#X connect 9 0 17 0;
#X connect 9 0 18 0;
#X connect 9 0 19 0;
#X connect 9 0 20 0;
#X connect 10 0 16 1;
#X connect 11 0 16 2;
#X connect 12 0 7 0;
#X connect 13 0 7 0;
#X connect 14 0 7 0;
#X connect 15 0 7 0;
#X connect 16 0 2 0;
#X connect 17 0 12 0;
#X connect 18 0 13 0;
#X connect 19 0 14 0;
#X connect 20 0 15 0;
#X connect 21 0 32 0;
#X connect 23 0 24 0;
#X connect 25 0 29 0;
#X connect 27 0 32 0;
#X connect 28 0 29 1;
#X connect 29 0 30 0;
#X connect 30 0 33 0;
#X connect 31 0 22 0;
#X connect 31 0 26 0;
#X connect 32 0 28 0;
#X connect 32 0 34 0;
#X connect 32 1 23 0;
#X connect 32 2 35 0;
#X connect 33 0 31 0;
#X connect 34 0 33 1;
#X connect 35 0 33 1;
