#N canvas 827 239 527 327 12;
#X obj 210 120 param \$1;
#X msg 25 61 create \, range \$1 \$2;
#X obj 189 33 inlet;
#X obj 210 270 outlet;
#X obj 210 228 spigot;
#X obj 287 120 1;
#X obj 328 120 0;
#X obj 25 33 loadmess \$2 \$3;
#X obj 189 74 t b f b, f 9;
#X connect 0 0 4 0;
#X connect 1 0 0 0;
#X connect 2 0 8 0;
#X connect 4 0 3 0;
#X connect 5 0 4 1;
#X connect 6 0 4 1;
#X connect 7 0 1 0;
#X connect 8 0 5 0;
#X connect 8 1 0 0;
#X connect 8 2 6 0;
