#N canvas 827 239 527 327 12;
#X obj 8 345 adc~ 1 2 3 4, f 29;
#X obj 8 505 snake~ in, f 11;
#X obj 175 435 snake~ in, f 11;
#X obj 242 952 snake~ out;
#X obj 242 1069 dac~;
#X obj -4 -32 loadbang;
#X obj 236 494 snake~ out;
#X obj 236 521 min~;
#X obj 8 619 *~;
#X obj 236 467 abs~;
#X obj 236 548 mov.avg~ 4 4;
#X obj 236 575 >~ 1e-06;
#X obj 8 650 +~;
#X obj 128 650 +~;
#X obj 420 1022 loadbang;
#X obj 420 1118 plugin_latency;
#X obj 420 1053 1024;
#X obj 20 15 hsl 128 17 -1 1 0 1 a empty empty -2 -8 0 10 #e4c417 #4d4d4d #373737 0 1;
#X obj 20 61 hsl 128 17 -1 1 0 1 p empty empty -2 -8 0 10 #e4c417 #4d4d4d #373737 0 1;
#X obj 273 650 r a, f 4;
#X obj 313 650 r p, f 4;
#X obj 242 854 delay~ 512 512;
#X obj 242 828 snake~ out;
#X obj 349 854 delay~ 512 512;
#X obj 242 880 snake~ in;
#X obj 479 828 snake~ out;
#X obj 479 880 snake~ in;
#X obj 479 854 delay~ 768 768;
#X obj 595 854 delay~ 768 768;
#X obj 17 98 tgl 25 1 mr empty empty 17 7 0 10 #e4e4e4 #4d4d4d #373737 1 1;
#X text 51 98 Multiresolution;
#X obj 381 650 r mr;
#X obj 756 854 delay~ 512 512;
#X obj 756 828 snake~ out;
#X obj 863 854 delay~ 512 512;
#X obj 756 880 snake~ in;
#X obj 808 650 r a, f 4;
#X obj 834 672 r p, f 4;
#X obj 861 697 r mr;
#X obj 861 723 expr 1-$f1;
#N canvas 0 50 450 300 mtos 0;
#X obj 51 43 inlet~;
#X obj 220 43 inlet~;
#X obj 51 459 outlet~;
#X obj 51 109 +~;
#X obj 209 109 -~;
#X obj 51 140 /~ 2;
#X obj 209 140 /~ 2;
#X obj 392 43 inlet~;
#X obj 561 43 inlet~;
#X obj 392 109 +~;
#X obj 550 109 -~;
#X obj 392 140 /~ 2;
#X obj 550 140 /~ 2;
#X obj 684 43 inlet;
#X obj 51 249 *~, f 6;
#X obj 106 249 *~, f 6;
#X obj 684 79 expr 1-$f1;
#X obj 51 339 +~;
#X obj 209 459 outlet~;
#X obj 209 249 *~, f 6;
#X obj 264 249 *~, f 6;
#X obj 209 339 +~;
#X obj 392 459 outlet~;
#X obj 392 249 *~, f 6;
#X obj 447 249 *~, f 6;
#X obj 392 339 +~;
#X obj 550 459 outlet~;
#X obj 550 249 *~, f 6;
#X obj 605 249 *~, f 6;
#X obj 550 339 +~;
#X connect 0 0 3 0;
#X connect 0 0 4 0;
#X connect 0 0 15 0;
#X connect 1 0 4 1;
#X connect 1 0 3 1;
#X connect 1 0 20 0;
#X connect 3 0 5 0;
#X connect 4 0 6 0;
#X connect 5 0 14 0;
#X connect 6 0 19 0;
#X connect 7 0 9 0;
#X connect 7 0 10 0;
#X connect 7 0 24 0;
#X connect 8 0 10 1;
#X connect 8 0 9 1;
#X connect 8 0 28 0;
#X connect 9 0 11 0;
#X connect 10 0 12 0;
#X connect 11 0 23 0;
#X connect 12 0 27 0;
#X connect 13 0 14 1;
#X connect 13 0 19 1;
#X connect 13 0 23 1;
#X connect 13 0 16 0;
#X connect 13 0 27 1;
#X connect 14 0 17 0;
#X connect 15 0 17 0;
#X connect 16 0 15 1;
#X connect 16 0 20 1;
#X connect 16 0 28 1;
#X connect 16 0 24 1;
#X connect 17 0 2 0;
#X connect 19 0 21 0;
#X connect 20 0 21 0;
#X connect 21 0 18 0;
#X connect 23 0 25 0;
#X connect 24 0 25 0;
#X connect 25 0 22 0;
#X connect 27 0 29 0;
#X connect 28 0 29 0;
#X connect 29 0 26 0;
#X restore 8 382 pd mtos;
#X f 37;
#X obj 17 196 tgl 25 1 empty empty empty 17 7 0 10 #e4e4e4 #4d4d4d #373737 1 1;
#X text 51 196 Mid-side;
#N canvas 0 50 450 300 stom 0;
#X obj 51 43 inlet~;
#X obj 220 43 inlet~;
#X obj 51 459 outlet~;
#X obj 51 109 +~;
#X obj 209 109 -~;
#X obj 371 87 /~ 2;
#X obj 314 56 /~ 2;
#X obj 684 43 inlet;
#X obj 51 249 *~, f 6;
#X obj 106 249 *~, f 6;
#X obj 684 79 expr 1-$f1;
#X obj 51 339 +~;
#X obj 209 459 outlet~;
#X obj 209 249 *~, f 6;
#X obj 264 249 *~, f 6;
#X obj 209 339 +~;
#X connect 0 0 3 0;
#X connect 0 0 4 0;
#X connect 0 0 9 0;
#X connect 1 0 4 1;
#X connect 1 0 3 1;
#X connect 1 0 14 0;
#X connect 3 0 8 0;
#X connect 4 0 13 0;
#X connect 7 0 8 1;
#X connect 7 0 13 1;
#X connect 7 0 10 0;
#X connect 8 0 11 0;
#X connect 9 0 11 0;
#X connect 10 0 9 1;
#X connect 10 0 14 1;
#X connect 11 0 2 0;
#X connect 13 0 15 0;
#X connect 14 0 15 0;
#X connect 15 0 12 0;
#X restore 242 1008 pd stom;
#X f 17;
#X obj 8 777 morphingtool-xsynth 1024 0 16, f 20;
#X obj 242 777 morphingtool-xsynth 512 8 32, f 20;
#X obj 479 777 morphingtool-xsynth 256 16 128, f 19;
#X obj 756 777 morphingtool-xsynth 512 0 256, f 19;
#X text 17 225 Almost always sounds better when enabled, f 24;
#X obj 420 1083 - 64;
#X obj 20 38 hsl 128 17 -1 1 0 0 empty empty empty -2 -8 0 10 #e4e4e4 #4d4d4d #373737 0 1;
#X obj -102 29 param AToB;
#X obj -102 75 param BToA;
#X obj -102 114 t b b;
#X text 424 293 Morphing tool;
#X text 17 127 Triple the CPU usage \, but quite the improvement in quality, f 24;
#X text 61 13 A -> B;
#X text 61 59 B -> A;
#X obj 14 295 cnv 15 100 17 empty empty empty 20 12 0 14 #e4c417 #373737 0;
#X text 24 293 Automatable;
#X connect 0 0 40 0;
#X connect 0 1 40 1;
#X connect 0 2 40 2;
#X connect 0 3 40 3;
#X connect 1 0 8 0;
#X connect 2 0 9 0;
#X connect 2 0 13 0;
#X connect 3 0 43 0;
#X connect 3 1 43 1;
#X connect 5 0 18 0;
#X connect 5 0 53 0;
#X connect 5 0 17 0;
#X connect 6 0 7 0;
#X connect 6 1 7 1;
#X connect 7 0 10 0;
#X connect 8 0 12 0;
#X connect 9 0 6 0;
#X connect 10 0 11 0;
#X connect 11 0 8 1;
#X connect 12 0 44 0;
#X connect 12 0 45 0;
#X connect 12 0 46 0;
#X connect 12 0 47 0;
#X connect 13 0 44 1;
#X connect 13 0 45 1;
#X connect 13 0 46 1;
#X connect 13 0 47 1;
#X connect 14 0 16 0;
#X connect 16 0 49 0;
#X connect 17 0 51 0;
#X connect 18 0 52 0;
#X connect 19 0 44 2;
#X connect 19 0 45 2;
#X connect 19 0 46 2;
#X connect 20 0 44 3;
#X connect 20 0 45 3;
#X connect 20 0 46 3;
#X connect 21 0 24 0;
#X connect 22 0 21 0;
#X connect 22 1 23 0;
#X connect 23 0 24 1;
#X connect 24 0 3 0;
#X connect 25 0 27 0;
#X connect 25 1 28 0;
#X connect 26 0 3 0;
#X connect 27 0 26 0;
#X connect 28 0 26 1;
#X connect 31 0 44 4;
#X connect 31 0 45 4;
#X connect 31 0 46 4;
#X connect 32 0 35 0;
#X connect 33 0 32 0;
#X connect 33 1 34 0;
#X connect 34 0 35 1;
#X connect 35 0 3 0;
#X connect 36 0 47 2;
#X connect 37 0 47 3;
#X connect 38 0 39 0;
#X connect 39 0 47 4;
#X connect 40 0 1 0;
#X connect 40 1 1 1;
#X connect 40 2 2 0;
#X connect 40 3 2 1;
#X connect 41 0 40 4;
#X connect 41 0 43 2;
#X connect 43 0 4 0;
#X connect 43 1 4 1;
#X connect 44 0 3 0;
#X connect 45 0 22 0;
#X connect 46 0 25 0;
#X connect 47 0 33 0;
#X connect 49 0 15 0;
#X connect 50 0 18 0;
#X connect 50 0 17 0;
#X connect 51 0 17 0;
#X connect 52 0 18 0;
#X connect 53 0 29 0;
#X connect 53 0 41 0;
#X connect 53 1 29 0;
#X connect 53 1 41 0;
