#N canvas 733 172 450 300 12;
#X obj 96 671 outlet~;
#X obj 41 82 *~, f 6;
#X obj 41 173 rfft~, f 11;
#X obj 96 590 rifft~, f 10;
#X obj 198 13 inlet~, f 7;
#X obj 41 138 /~, f 6;
#X obj 41 13 inlet~, f 7;
#N canvas 0 0 450 250 (subpatch) 0;
#X array w\$0 1024 float 2;
#X coords 0 1 1024 -1 200 140 1;
#X restore 478 1313 graph;
#X obj 285 1217 until;
#X obj 285 1365 avg;
#X obj 285 1254 f;
#X obj 326 1254 + 1;
#X obj 259 1179 t b f b;
#X obj 259 1407 f;
#X msg 215 1217 clear;
#X obj 285 1328 *;
#X obj 326 1217 0;
#X obj 199 82 *~, f 6;
#X obj 199 138 /~, f 6;
#X obj 41 760 loadbang, f 10;
#X msg 128 760 bang;
#X text 478 1237 Hann window sounds the best so far., f 27;
#X text 214 1084 Calculate the normalization coefficient., f 27;
#X msg 478 1179 hanning;
#X obj 96 645 *~, f 6;
#X msg 74 1050 set \$1 \$2;
#X obj 74 1019 pack;
#X obj 347 1019 f;
#X obj 259 1444 expr $f1*$f2*$f3;
#X obj 87 939 t f f;
#X obj 87 913 4;
#X obj 63 53 tabreceive~ w\$0;
#X obj 221 53 tabreceive~ w\$0;
#X obj 118 617 tabreceive~ w\$0;
#X obj 478 1220 else/tabgen w\$0;
#X obj 285 1291 tabread w\$0;
#X obj 720 1210 \$0;
#N canvas 0 0 450 250 (subpatch) 0;
#X array b\$0 512 float 2;
#X coords 0 1 512 -1 200 140 1;
#X restore 478 1487 graph;
#X obj 199 173 rfft~, f 11;
#X obj 96 489 *~;
#X obj 151 489 *~;
#X text 642 227 Vector with phase of v2 and magnitude of v1 is equal to v2/|v2|*|v1|, f 28;
#X text 642 172 This is still just the replacement of the phase \, but without slow atan2() inside car2pol~ this time, f 28;
#X obj 96 556 *~;
#X obj 151 556 *~;
#X obj 182 512 tabreceive~ b\$0;
#X obj 41 913 \$1;
#X obj 103 82 r n\$0;
#X obj 261 82 r n\$0;
#X obj 259 1481 s n\$0;
#X obj 652 53 inlet;
#X obj 123 325 xfade.mc~;
#X obj 41 325 xfade.mc~;
#X obj 711 53 inlet;
#X obj 41 1167 / 2;
#X obj 696 1179 t f b f, f 12;
#X obj 759 1210 / 2;
#X obj 696 1243 pack f f f;
#X text 41 869 Window size (from argument) and overlap, f 27;
#X text 41 698 See https://ccrma.stanford.edu/~jos/sasp/Cross_Synthesis.html;
#X obj 255 325 xfade.mc~;
#X obj 74 1084 switch~;
#X obj 770 53 inlet;
#X obj 770 79 s e\$0;
#X obj 158 1050 r e\$0;
#X text -155 295 Interpolation between phases is interpolation between unit vectors., f 26;
#X obj 41 1141 t f f f f b, f 128;
#X obj 642 352 array define lpsr\$0;
#X f 20;
#X obj 787 352 array define rpsr\$0;
#X obj 318 601 tabsend~ lpsr\$0 rpsr\$0;
#X obj 818 53 inlet;
#X obj 818 79 s decay\$0;
#X obj 479 325 r decay\$0;
#N canvas 0 50 450 300 expdecay 0;
#X obj 71 203 expdecay$;
#X obj 46 93 inlet~;
#X obj 97 93 inlet~;
#X obj 46 279 outlet~;
#X obj 159 93 inlet;
#X obj 159 119 == 0;
#X obj 207 119 != 0;
#X obj 71 237 *~, f 5;
#X obj 28 237 *~, f 5;
#X connect 0 0 7 0;
#X connect 1 0 0 0;
#X connect 1 0 8 0;
#X connect 2 0 0 1;
#X connect 4 0 0 2;
#X connect 4 0 5 0;
#X connect 4 0 6 0;
#X connect 5 0 8 1;
#X connect 6 0 7 1;
#X connect 7 0 3 0;
#X connect 8 0 3 0;
#X restore 255 352 pd expdecay;
#X f 35;
#X obj 227 944 samplerate~;
#X obj 41 794 t b b;
#X obj 41 972 expr max(1 \, floor($f2/48000))*$f1;
#N canvas 733 172 450 300 calc-bandpass 0;
#X obj 79 164 until;
#X obj 79 251 f;
#X obj 120 251 + 1;
#X obj 120 164 0;
#X obj 136 301 moses, f 9;
#X obj 175 327 moses, f 9;
#X obj 79 506 array set b\$0;
#X text 90 16 Calculate the bandpass shape., f 27;
#X obj 139 418 b;
#X obj 217 418 b;
#X obj 136 444 0;
#X obj 175 164 \$2;
#X obj 253 164 \$3;
#X obj 178 418 b;
#X obj 214 444 1;
#X obj 214 353 moses, f 9;
#X obj 253 379 moses, f 9;
#X obj 293 276 + 1;
#X obj 295 418 b;
#X obj 256 418 b;
#X obj 292 444 0;
#X obj 214 276 + 1;
#X obj 175 444 0;
#X obj 253 444 0.5;
#X obj 253 190 expr max(1 \, floor($f2/48000))*$f1;
#X obj 175 215 expr max(1 \, floor($f2/48000))*$f1;
#X obj 361 164 samplerate~;
#X obj 79 93 t f b b, f 15;
#X obj 41 17 inlet;
#X obj 41 570 outlet;
#X connect 0 0 1 0;
#X connect 1 0 2 0;
#X connect 1 0 4 0;
#X connect 1 0 6 1;
#X connect 2 0 1 1;
#X connect 3 0 1 1;
#X connect 4 0 8 0;
#X connect 4 1 5 0;
#X connect 5 0 13 0;
#X connect 5 1 15 0;
#X connect 8 0 10 0;
#X connect 9 0 14 0;
#X connect 10 0 6 0;
#X connect 11 0 25 0;
#X connect 12 0 24 0;
#X connect 13 0 22 0;
#X connect 14 0 6 0;
#X connect 15 0 9 0;
#X connect 15 1 16 0;
#X connect 16 0 19 0;
#X connect 16 1 18 0;
#X connect 17 0 16 1;
#X connect 18 0 20 0;
#X connect 19 0 23 0;
#X connect 20 0 6 0;
#X connect 21 0 5 1;
#X connect 22 0 6 0;
#X connect 23 0 6 0;
#X connect 24 0 15 1;
#X connect 24 0 17 0;
#X connect 25 0 21 0;
#X connect 25 0 4 1;
#X connect 26 0 25 1;
#X connect 26 0 24 1;
#X connect 27 0 0 0;
#X connect 27 1 3 0;
#X connect 27 1 11 0;
#X connect 27 1 12 0;
#X connect 27 2 26 0;
#X connect 28 0 27 0;
#X connect 28 0 29 0;
#X restore 41 1392 pd calc-bandpass;
#N canvas 0 0 450 250 (subpatch) 0;
#X array pink\$0 512 float 2;
#X coords 0 1 512 -1 200 140 1;
#X restore 478 1658 graph;
#N canvas 733 172 450 300 calc-pink 0;
#X obj 120 111 until;
#X obj 120 148 f;
#X obj 161 148 + 1;
#X obj 161 111 0;
#X obj 120 73 t f b f, f 17;
#X obj 145 188 expr 1/sqrt($f1/$f2)/32;
#X obj 49 28 inlet;
#X text 128 27 Calculate the pink noise spectrum;
#X obj 49 279 outlet;
#X obj 79 246 array set pink\$0;
#X connect 0 0 1 0;
#X connect 1 0 2 0;
#X connect 1 0 5 0;
#X connect 1 0 9 1;
#X connect 2 0 1 1;
#X connect 3 0 1 1;
#X connect 4 0 0 0;
#X connect 4 1 3 0;
#X connect 4 2 5 1;
#X connect 5 0 9 0;
#X connect 6 0 4 0;
#X connect 6 0 8 0;
#X restore 41 1420 pd calc-pink;
#X msg 696 1276 \; w\$2 resize \$1 \; b\$2 resize \$3 \; pink\$2 resize \$3;
#N canvas 0 50 450 300 noiser 0;
#X obj 139 372 *~, f 6;
#X obj 161 321 tabreceive~ pink\$0;
#X obj 139 294 noise~;
#X obj 84 27 inlet~;
#X obj 84 206 outlet~;
#X obj 84 178 snake~ in, f 23;
#X obj 84 54 snake~ out, f 24;
#X obj 343 27 inlet~;
#X obj 343 206 outlet~;
#X obj 343 178 snake~ in, f 23;
#X obj 343 54 snake~ out, f 24;
#X obj 664 27 inlet;
#X obj 42 399 norm-mag, f 17;
#X obj 42 294 noise~;
#X obj 42 372 *~, f 6;
#X obj 42 453 s~ noisecr\$0;
#X obj 139 453 s~ noiseci\$0;
#X obj 367 111 r~ noiseci\$0;
#X obj 84 151 xfade~;
#X obj 227 151 xfade~;
#X obj 121 111 r~ noisecr\$0;
#X obj 343 151 xfade~;
#X obj 486 151 xfade~;
#X connect 0 0 12 1;
#X connect 1 0 0 1;
#X connect 1 0 14 1;
#X connect 2 0 0 0;
#X connect 3 0 6 0;
#X connect 5 0 4 0;
#X connect 6 0 18 0;
#X connect 6 1 19 0;
#X connect 7 0 10 0;
#X connect 9 0 8 0;
#X connect 10 0 21 0;
#X connect 10 1 22 0;
#X connect 11 0 18 2;
#X connect 11 0 19 2;
#X connect 11 0 22 2;
#X connect 11 0 21 2;
#X connect 12 0 15 0;
#X connect 12 1 16 0;
#X connect 13 0 14 0;
#X connect 14 0 12 0;
#X connect 17 0 21 1;
#X connect 17 0 22 1;
#X connect 18 0 5 0;
#X connect 19 0 5 1;
#X connect 20 0 18 1;
#X connect 20 0 19 1;
#X connect 21 0 9 0;
#X connect 22 0 9 1;
#X restore 96 380 pd noiser;
#X f 11;
#X obj 897 53 inlet;
#X obj 151 352 r pn\$0;
#X obj 897 79 s pn\$0;
#X obj 965 53 inlet;
#X obj 965 79 s f\$0;
#X obj 318 380 r f\$0;
#X obj 208 435 switchedinlet;
#X obj 482 380 r f\$0;
#X obj 418 409 switchedinlet;
#X obj 418 442 tabsend~ lpsr\$0 rpsr\$0;
#X obj 367 275 tabreceive~ lpsr\$0 rpsr\$0;
#X obj 418 380 sigs~;
#X obj 318 483 \$0;
#X msg 318 513 set lpsr\$1 rpsr\$1;
#X msg 438 513 set;
#X obj 318 434 moses 1;
#X obj 321 458 b;
#X obj 318 556 t a;
#X obj 41 204 norm-mag;
#X obj 199 204 norm-mag;
#X obj 90 296 r xfp\$0;
#X obj 172 296 r xfp\$0;
#X obj 652 79 s xfp\$0;
#X obj 711 79 s xfa\$0;
#X obj 304 299 r xfa\$0;
#X connect 1 0 5 0;
#X connect 2 0 100 0;
#X connect 2 1 100 1;
#X connect 3 0 24 0;
#X connect 4 0 17 0;
#X connect 5 0 2 0;
#X connect 6 0 1 0;
#X connect 8 0 10 0;
#X connect 9 0 13 1;
#X connect 10 0 11 0;
#X connect 10 0 35 0;
#X connect 11 0 10 1;
#X connect 12 0 13 0;
#X connect 12 1 8 0;
#X connect 12 2 14 0;
#X connect 12 2 16 0;
#X connect 13 0 28 0;
#X connect 14 0 9 0;
#X connect 15 0 9 0;
#X connect 16 0 10 1;
#X connect 17 0 18 0;
#X connect 18 0 38 0;
#X connect 19 0 75 0;
#X connect 20 0 75 0;
#X connect 23 0 34 0;
#X connect 24 0 0 0;
#X connect 25 0 61 0;
#X connect 26 0 25 0;
#X connect 27 0 28 2;
#X connect 28 0 49 0;
#X connect 29 0 26 1;
#X connect 29 1 27 0;
#X connect 30 0 29 0;
#X connect 31 0 1 1;
#X connect 32 0 17 1;
#X connect 33 0 24 1;
#X connect 35 0 15 0;
#X connect 35 0 15 1;
#X connect 36 0 57 1;
#X connect 38 0 101 0;
#X connect 38 1 101 1;
#X connect 39 0 43 0;
#X connect 40 0 44 0;
#X connect 43 0 3 0;
#X connect 44 0 3 1;
#X connect 45 0 43 1;
#X connect 45 0 44 1;
#X connect 46 0 76 0;
#X connect 47 0 5 1;
#X connect 48 0 18 1;
#X connect 50 0 104 0;
#X connect 51 0 81 1;
#X connect 52 0 81 0;
#X connect 53 0 105 0;
#X connect 54 0 77 0;
#X connect 55 0 57 0;
#X connect 55 1 36 0;
#X connect 55 2 56 0;
#X connect 56 0 57 2;
#X connect 57 0 80 0;
#X connect 60 0 73 0;
#X connect 62 0 63 0;
#X connect 64 0 61 0;
#X connect 64 0 20 0;
#X connect 66 0 54 0;
#X connect 66 1 12 0;
#X connect 66 2 23 0;
#X connect 66 2 28 1;
#X connect 66 3 55 0;
#X connect 70 0 71 0;
#X connect 72 0 73 2;
#X connect 73 0 88 0;
#X connect 73 0 69 0;
#X connect 74 0 76 1;
#X connect 75 0 30 0;
#X connect 75 0 46 0;
#X connect 75 1 74 0;
#X connect 76 0 26 0;
#X connect 76 0 66 0;
#X connect 77 0 79 0;
#X connect 81 0 39 0;
#X connect 81 1 40 0;
#X connect 82 0 84 0;
#X connect 83 0 81 2;
#X connect 85 0 86 0;
#X connect 87 0 88 2;
#X connect 87 0 97 0;
#X connect 88 0 39 1;
#X connect 88 0 40 1;
#X connect 89 0 90 2;
#X connect 90 0 91 0;
#X connect 92 0 90 1;
#X connect 92 0 73 1;
#X connect 92 0 88 1;
#X connect 93 0 90 0;
#X connect 94 0 95 0;
#X connect 95 0 99 0;
#X connect 96 0 99 0;
#X connect 97 0 98 0;
#X connect 97 1 96 0;
#X connect 98 0 94 0;
#X connect 99 0 69 0;
#X connect 100 0 52 0;
#X connect 100 1 51 0;
#X connect 100 2 60 1;
#X connect 101 0 52 1;
#X connect 101 1 51 1;
#X connect 101 2 60 0;
#X connect 102 0 52 2;
#X connect 103 0 51 2;
#X connect 106 0 60 2;
