#N canvas 0 50 450 300 12;
#N canvas 0 50 450 300 pitchsteal-impl 1;
#X obj 225 389 -;
#X obj 44 125 inlet~;
#X obj 144 125 inlet~;
#X obj 225 125 inlet~;
#X obj 44 702 outlet~;
#X obj 144 702 outlet~;
#X obj 692 160 switch~;
#X obj 692 132 inlet;
#X obj 44 634 pitch.shift~ 50;
#X obj 144 634 pitch.shift~ 50;
#X obj 225 455 * 100;
#X obj 225 551 pack;
#X obj 286 125 inlet;
#X obj 225 577 line;
#X obj 618 123 inlet;
#X obj 549 376 +, f 11;
#X obj 442 125 inlet;
#X obj 225 320 f;
#X obj 549 320 f;
#X obj 618 182 * 12;
#X obj 225 216 sigmund~ pitch env -maxfreq 1000 -quality 0.8;
#X obj 526 216 sigmund~ pitch env -maxfreq 1000 -quality 0.8;
#X obj 225 282 moses 20;
#X obj 526 254 moses 20;
#X obj 398 282 - 100;
#X obj 398 308 dbtoa;
#X obj 225 346 *;
#X obj 746 282 - 100;
#X obj 746 308 dbtoa;
#X obj 549 346 *;
#X obj 398 334 min 1;
#X obj 746 334 min 1;
#X connect 0 0 10 0;
#X connect 1 0 8 0;
#X connect 1 0 20 0;
#X connect 2 0 9 0;
#X connect 3 0 21 0;
#X connect 7 0 6 0;
#X connect 8 0 4 0;
#X connect 9 0 5 0;
#X connect 10 0 11 0;
#X connect 11 0 13 0;
#X connect 12 0 11 1;
#X connect 13 0 9 1;
#X connect 13 0 8 1;
#X connect 14 0 19 0;
#X connect 15 0 0 0;
#X connect 16 0 24 1;
#X connect 16 0 27 1;
#X connect 17 0 26 0;
#X connect 18 0 29 0;
#X connect 19 0 15 1;
#X connect 20 0 22 0;
#X connect 20 1 24 0;
#X connect 21 0 23 0;
#X connect 21 1 27 0;
#X connect 22 1 17 0;
#X connect 23 1 18 0;
#X connect 24 0 25 0;
#X connect 25 0 30 0;
#X connect 26 0 0 1;
#X connect 27 0 28 0;
#X connect 28 0 31 0;
#X connect 29 0 15 0;
#X connect 30 0 26 1;
#X connect 31 0 29 1;
#X restore 329 226 pd pitchsteal-impl;
#X obj 329 24 inlet~;
#X obj 435 24 inlet~;
#X obj 525 24 inlet~;
#X obj 329 371 outlet~;
#X obj 435 371 outlet~;
#X obj 367 298 *~;
#X obj 466 298 *~;
#X obj 584 152 expr 1-$f1;
#X obj 584 55 inlet;
#X obj 584 89 unpack f f f f;
#X text 584 31 enable \, release \, threshold \, octave;
#X connect 0 0 4 0;
#X connect 0 1 5 0;
#X connect 1 0 0 0;
#X connect 1 0 6 0;
#X connect 2 0 0 1;
#X connect 2 0 7 0;
#X connect 3 0 0 2;
#X connect 6 0 4 0;
#X connect 7 0 5 0;
#X connect 8 0 7 1;
#X connect 8 0 6 1;
#X connect 9 0 10 0;
#X connect 10 0 0 6;
#X connect 10 0 8 0;
#X connect 10 1 0 3;
#X connect 10 2 0 4;
#X connect 10 3 0 5;
