#N canvas 827 239 527 327 12;
#N canvas 733 172 450 300 (subpatch) 0;
#X obj 45 73 hilbert~;
#X obj 172 73 hilbert~;
#N canvas 0 50 450 300 norm-mag 0;
#X obj 252 83 inlet~;
#X obj 237 145 *~;
#X obj 195 83 inlet~;
#X obj 195 183 +~;
#X obj 195 218 sqrt~;
#X obj 195 344 outlet~;
#X obj 195 144 *~;
#X obj 64 274 /~;
#X obj 119 274 /~;
#X obj 64 343 outlet~;
#X obj 119 343 outlet~;
#X connect 0 0 1 1;
#X connect 0 0 1 0;
#X connect 0 0 8 0;
#X connect 1 0 3 1;
#X connect 2 0 6 0;
#X connect 2 0 6 1;
#X connect 2 0 7 0;
#X connect 3 0 4 0;
#X connect 4 0 5 0;
#X connect 4 0 7 1;
#X connect 4 0 8 1;
#X connect 6 0 3 0;
#X connect 7 0 9 0;
#X connect 8 0 10 0;
#X restore 45 181 pd norm-mag;
#X obj 125 273 xfade.mc~;
#X obj 45 273 xfade.mc~;
#X obj 205 273 xfade.mc~;
#X obj 45 330 *~;
#X obj 125 330 *~;
#X obj 45 149 snake~ in, f 21;
#X obj 341 73 hilbert~;
#X obj 468 73 hilbert~;
#X obj 341 149 snake~ in, f 21;
#N canvas 0 50 450 300 norm-mag 0;
#X obj 252 83 inlet~;
#X obj 237 145 *~;
#X obj 195 83 inlet~;
#X obj 195 183 +~;
#X obj 195 218 sqrt~;
#X obj 195 344 outlet~;
#X obj 195 144 *~;
#X obj 64 274 /~;
#X obj 119 274 /~;
#X obj 64 343 outlet~;
#X obj 119 343 outlet~;
#X connect 0 0 1 1;
#X connect 0 0 1 0;
#X connect 0 0 8 0;
#X connect 1 0 3 1;
#X connect 2 0 6 0;
#X connect 2 0 6 1;
#X connect 2 0 7 0;
#X connect 3 0 4 0;
#X connect 4 0 5 0;
#X connect 4 0 7 1;
#X connect 4 0 8 1;
#X connect 6 0 3 0;
#X connect 7 0 9 0;
#X connect 8 0 10 0;
#X restore 341 181 pd norm-mag;
#X obj 45 357 complex-mod~, f 26;
#X obj 112 122 snake~ in, f 21;
#X obj 408 122 snake~ in, f 21;
#X obj 45 383 outlet~;
#X obj 366 -4 inlet~, f 8;
#X obj 607 122 inlet;
#X obj 901 47 inlet;
#X obj 607 278 s xfa\$0;
#X obj 901 73 s fqsh\$0;
#X obj 205 330 r fqsh\$0;
#X obj 175 181 r xfa\$0;
#X obj 341 47 snake~ out, f 21;
#X obj 70 -4 inlet~, f 8;
#X obj 45 47 snake~ out, f 21;
#X obj 341 383 outlet~;
#X obj 341 273 xfade.mc~;
#X text 263 443 if a == 1 and p == -1 \, o2 = b;
#X text 263 465 if a == 1 and p == 1 \, o2 = b;
#X text 263 491 if a == -1 and p == 1 \, o2 = a;
#X text 263 516 if a == -1 and p == -1 \, o2 = a;
#X obj 699 278 s xfp\$0;
#X obj 254 181 r xfp\$0;
#X text 263 562 if dirt == 0 \, a = -xa \, p = xa \; if dirt == 1 \, a = -xa \, p = -xa;
#X obj 829 47 inlet;
#X obj 651 96 neg;
#X obj 699 224 lerp, f 9;
#X obj 721 159 neg;
#X obj 699 197 hot 3, f 9;
#X obj 607 168 neg;
#X obj 699 41 inlet;
#X obj 866 178 b;
#X obj 863 204 1;
#X obj 829 248 switch~;
#X obj 829 149 moses 1;
#X connect 0 0 8 0;
#X connect 0 1 14 0;
#X connect 1 0 8 1;
#X connect 1 1 14 1;
#X connect 2 0 4 0;
#X connect 2 1 3 0;
#X connect 2 2 5 1;
#X connect 3 0 7 0;
#X connect 4 0 6 0;
#X connect 5 0 6 1;
#X connect 5 0 7 1;
#X connect 6 0 13 0;
#X connect 7 0 13 1;
#X connect 8 0 2 0;
#X connect 9 0 11 0;
#X connect 9 1 15 0;
#X connect 10 0 11 1;
#X connect 10 1 15 1;
#X connect 11 0 12 0;
#X connect 12 0 4 1;
#X connect 12 1 3 1;
#X connect 12 2 5 0;
#X connect 13 0 16 0;
#X connect 14 0 2 1;
#X connect 15 0 12 1;
#X connect 17 0 24 0;
#X connect 17 0 28 0;
#X connect 18 0 40 0;
#X connect 18 0 39 0;
#X connect 18 0 41 0;
#X connect 19 0 21 0;
#X connect 22 0 13 2;
#X connect 23 0 4 2;
#X connect 23 0 3 2;
#X connect 23 0 28 2;
#X connect 24 0 9 0;
#X connect 24 1 10 0;
#X connect 25 0 26 0;
#X connect 25 0 28 1;
#X connect 26 0 0 0;
#X connect 26 1 1 0;
#X connect 28 0 27 0;
#X connect 34 0 5 2;
#X connect 36 0 40 2;
#X connect 36 0 37 0;
#X connect 36 0 46 0;
#X connect 38 0 33 0;
#X connect 39 0 40 1;
#X connect 40 0 38 0;
#X connect 40 1 38 1;
#X connect 40 2 38 2;
#X connect 41 0 20 0;
#X connect 43 0 44 0;
#X connect 44 0 45 0;
#X connect 46 0 45 0;
#X connect 46 1 43 0;
#X restore 48 136 pd;
#X obj 20 263 outlet~;
#X obj 84 14 inlet~, f 8;
#X obj 203 14 inlet;
#X obj 20 14 inlet~, f 8;
#X obj 103 263 outlet~;
#X obj 284 14 inlet;
#X obj 242 14 inlet;
#X obj 325 14 inlet;
#X obj 20 194 switchedinlet;
#X obj 103 223 switchedinlet;
#X connect 0 0 9 1;
#X connect 0 1 10 1;
#X connect 2 0 0 1;
#X connect 2 0 10 0;
#X connect 3 0 0 2;
#X connect 4 0 0 0;
#X connect 4 0 9 0;
#X connect 6 0 0 4;
#X connect 6 0 9 2;
#X connect 6 0 10 2;
#X connect 7 0 0 3;
#X connect 8 0 0 5;
#X connect 9 0 1 0;
#X connect 10 0 5 0;
