#N canvas 733 172 450 300 12;
#X obj 96 696 outlet~;
#X obj 41 32 *~, f 6;
#X obj 41 123 rfft~, f 11;
#X obj 96 606 rifft~, f 10;
#X obj 198 -37 inlet~, f 7;
#X obj 41 88 /~, f 6;
#X obj 41 -37 inlet~, f 7;
#N canvas 0 0 450 250 (subpatch) 0;
#X array w\$0 1024 float 2;
#X coords 0 1 1024 -1 200 140 1;
#X restore 478 1263 graph;
#X obj 285 1167 until;
#X obj 285 1315 avg;
#X obj 285 1204 f;
#X obj 326 1204 + 1;
#X obj 259 1129 t b f b;
#X obj 259 1357 f;
#X msg 215 1167 clear;
#X obj 285 1278 *;
#X obj 326 1167 0;
#X obj 199 32 *~, f 6;
#X obj 199 88 /~, f 6;
#X obj 41 785 loadbang, f 10;
#X msg 128 785 bang;
#X text 478 1188 Hann window sounds the best so far., f 27;
#X text 214 1035 Calculate the normalization coefficient., f 27;
#X msg 478 1129 hanning;
#X obj 96 661 *~, f 6;
#X msg 74 1000 set \$1 \$2;
#X obj 74 969 pack;
#X obj 44 817 b;
#X obj 346 969 f;
#X obj 259 1394 expr $f1*$f2*$f3;
#X obj 87 889 t f f;
#X obj 87 863 4;
#X obj 63 3 tabreceive~ w\$0;
#X obj 221 3 tabreceive~ w\$0;
#X obj 118 633 tabreceive~ w\$0;
#X obj 478 1170 else/tabgen w\$0;
#X obj 285 1241 tabread w\$0;
#X obj 720 1160 \$0;
#X obj 41 1562 until;
#X obj 41 1599 f;
#X obj 82 1599 + 1;
#X obj 82 1562 0;
#X obj 98 1649 moses, f 9;
#X obj 41 1516 t f b, f 15;
#N canvas 0 0 450 250 (subpatch) 0;
#X array b\$0 512 float 2;
#X coords 0 1 512 -1 200 140 1;
#X restore 478 1437 graph;
#X obj 137 1675 moses, f 9;
#X obj 41 1854 array set b\$0;
#X text 41 1875 Calculate the bandpass shape., f 27;
#X obj 101 1766 b;
#X obj 179 1766 b;
#X obj 98 1792 0;
#X obj 199 123 rfft~, f 11;
#X obj 96 489 *~;
#X obj 151 489 *~;
#X text 702 147 Vector with phase of v2 and magnitude of v1 is equal to v2/|v2|*|v1|, f 28;
#X text 702 92 This is still just the replacement of the phase \, but without slow atan2() inside car2pol~ this time, f 28;
#X obj 96 546 *~;
#X obj 151 546 *~;
#X obj 182 512 tabreceive~ b\$0;
#X obj 41 863 \$1;
#X obj 137 1562 \$2;
#X obj 215 1562 \$3;
#X obj 103 32 r n\$0;
#X obj 261 32 r n\$0;
#X obj 259 1431 s n\$0;
#X obj 394 38 inlet;
#X obj 123 275 xfade.mc~;
#X obj 41 275 xfade.mc~;
#X obj 453 38 inlet;
#X obj 41 1117 / 2;
#X msg 696 1226 \; w\$2 resize \$1 \; b\$2 resize \$3;
#X obj 696 1129 t f b f, f 12;
#X obj 759 1160 / 2;
#X obj 696 1193 pack f f f;
#X text 140 856 Window size (from argument) and overlap, f 27;
#X text 41 715 See https://ccrma.stanford.edu/~jos/sasp/Cross_Synthesis.html;
#X obj 394 378 xfade.mc~;
#X obj 74 1034 switch~;
#X obj 581 38 inlet;
#X obj 581 64 s e\$0;
#X obj 158 1000 r e\$0;
#X text 702 248 Interpolation between phases is interpolation between unit vectors., f 28;
#X obj 140 1766 b;
#X obj 176 1792 1;
#X obj 176 1701 moses, f 9;
#X obj 215 1727 moses, f 9;
#X obj 255 1599 + 1;
#X obj 257 1766 b;
#X obj 218 1766 b;
#X obj 254 1792 0;
#X obj 176 1599 + 1;
#X obj 137 1792 0;
#X obj 215 1792 0.5;
#X obj 41 154 norm-mag$;
#X obj 199 154 norm-mag$;
#X obj 41 1091 t f f f f b, f 128;
#X obj 593 894 array define lpsr\$0;
#X f 20;
#X obj 738 894 array define rpsr\$0;
#X obj 593 918 array define lpsi\$0;
#X f 20;
#X obj 738 918 array define rpsi\$0;
#X obj 697 537 tabsend~ lpsr\$0 rpsr\$0;
#X obj 718 511 tabsend~ lpsi\$0 rpsi\$0;
#X obj 394 64 s xfa\$0;
#X obj 90 246 r xfa\$0;
#X obj 172 246 r xfa\$0;
#N canvas 0 50 450 300 biexpdecay 1;
#X obj 71 203 expdecay$;
#X obj 194 203 expdecay$;
#X obj 46 93 inlet~;
#X obj 169 93 inlet~;
#X obj 260 93 inlet~;
#X obj 383 93 inlet~;
#X obj 46 279 outlet~;
#X obj 169 279 outlet~;
#X obj 500 93 inlet;
#X obj 500 119 == 0;
#X obj 548 119 != 0;
#X obj 194 237 *~, f 5;
#X obj 71 237 *~, f 5;
#X obj 151 237 *~, f 5;
#X obj 28 237 *~, f 5;
#X connect 0 0 12 0;
#X connect 1 0 11 0;
#X connect 2 0 0 0;
#X connect 2 0 14 0;
#X connect 3 0 1 0;
#X connect 3 0 13 0;
#X connect 4 0 0 1;
#X connect 5 0 1 1;
#X connect 8 0 0 2;
#X connect 8 0 1 2;
#X connect 8 0 9 0;
#X connect 8 0 10 0;
#X connect 9 0 13 1;
#X connect 9 0 14 1;
#X connect 10 0 12 1;
#X connect 10 0 11 1;
#X connect 11 0 7 0;
#X connect 12 0 6 0;
#X connect 13 0 7 0;
#X connect 14 0 6 0;
#X restore 406 426 pd biexpdecay;
#X f 35;
#X obj 571 374 tabreceive~ lpsi\$0 rpsi\$0;
#X obj 516 349 tabreceive~ lpsr\$0 rpsr\$0;
#X obj 702 38 inlet;
#X obj 453 64 s xfb\$0;
#X obj 443 349 r xfb\$0;
#X obj 702 64 s decay\$0;
#X obj 626 400 r decay\$0;
#X connect 1 0 5 0;
#X connect 2 0 93 0;
#X connect 2 1 93 1;
#X connect 3 0 24 0;
#X connect 4 0 17 0;
#X connect 5 0 2 0;
#X connect 6 0 1 0;
#X connect 8 0 10 0;
#X connect 9 0 13 1;
#X connect 10 0 11 0;
#X connect 10 0 36 0;
#X connect 11 0 10 1;
#X connect 12 0 13 0;
#X connect 12 1 8 0;
#X connect 12 2 14 0;
#X connect 12 2 16 0;
#X connect 13 0 29 0;
#X connect 14 0 9 0;
#X connect 15 0 9 0;
#X connect 16 0 10 1;
#X connect 17 0 18 0;
#X connect 18 0 51 0;
#X connect 19 0 27 0;
#X connect 20 0 27 0;
#X connect 23 0 35 0;
#X connect 24 0 0 0;
#X connect 25 0 77 0;
#X connect 26 0 25 0;
#X connect 27 0 31 0;
#X connect 27 0 59 0;
#X connect 28 0 29 2;
#X connect 29 0 64 0;
#X connect 30 0 26 1;
#X connect 30 1 28 0;
#X connect 31 0 30 0;
#X connect 32 0 1 1;
#X connect 33 0 17 1;
#X connect 34 0 24 1;
#X connect 36 0 15 0;
#X connect 36 0 15 1;
#X connect 37 0 73 1;
#X connect 38 0 39 0;
#X connect 39 0 40 0;
#X connect 39 0 42 0;
#X connect 39 0 46 1;
#X connect 40 0 39 1;
#X connect 41 0 39 1;
#X connect 42 0 48 0;
#X connect 42 1 45 0;
#X connect 43 0 38 0;
#X connect 43 1 41 0;
#X connect 43 1 60 0;
#X connect 43 1 61 0;
#X connect 45 0 82 0;
#X connect 45 1 84 0;
#X connect 48 0 50 0;
#X connect 49 0 83 0;
#X connect 50 0 46 0;
#X connect 51 0 94 0;
#X connect 51 1 94 1;
#X connect 52 0 56 0;
#X connect 53 0 57 0;
#X connect 56 0 3 0;
#X connect 57 0 3 1;
#X connect 58 0 56 1;
#X connect 58 0 57 1;
#X connect 59 0 26 0;
#X connect 59 0 95 0;
#X connect 60 0 42 1;
#X connect 60 0 90 0;
#X connect 61 0 84 1;
#X connect 61 0 86 0;
#X connect 62 0 5 1;
#X connect 63 0 18 1;
#X connect 65 0 102 0;
#X connect 66 0 53 0;
#X connect 67 0 52 0;
#X connect 68 0 109 0;
#X connect 69 0 43 0;
#X connect 71 0 73 0;
#X connect 71 1 37 0;
#X connect 71 2 72 0;
#X connect 72 0 73 2;
#X connect 73 0 70 0;
#X connect 76 0 105 0;
#X connect 78 0 79 0;
#X connect 80 0 77 0;
#X connect 80 0 20 0;
#X connect 82 0 91 0;
#X connect 83 0 46 0;
#X connect 84 0 49 0;
#X connect 84 1 85 0;
#X connect 85 0 88 0;
#X connect 85 1 87 0;
#X connect 86 0 85 1;
#X connect 87 0 89 0;
#X connect 88 0 92 0;
#X connect 89 0 46 0;
#X connect 90 0 45 1;
#X connect 91 0 46 0;
#X connect 92 0 46 0;
#X connect 93 0 67 0;
#X connect 93 1 66 0;
#X connect 93 2 76 1;
#X connect 94 0 67 1;
#X connect 94 1 66 1;
#X connect 94 2 76 0;
#X connect 95 0 69 0;
#X connect 95 1 12 0;
#X connect 95 2 23 0;
#X connect 95 2 29 1;
#X connect 95 3 71 0;
#X connect 103 0 67 2;
#X connect 104 0 66 2;
#X connect 105 0 100 0;
#X connect 105 0 53 1;
#X connect 105 0 52 1;
#X connect 105 1 101 0;
#X connect 106 0 105 3;
#X connect 107 0 105 2;
#X connect 108 0 111 0;
#X connect 110 0 76 2;
#X connect 112 0 105 4;
