#N canvas 827 239 527 327 12;
#X obj 9 181 cnv 15 151 139 empty empty empty 20 12 0 14 #a5ebff #373737 0;
#X obj 353 5 cnv 15 168 197 empty empty empty 20 12 0 14 #efefef #373737 0;
#X obj 8 337 adc~ 1 2 3 4, f 29;
#X obj 8 530 snake~ in, f 11;
#X obj 175 485 snake~ in, f 11;
#X obj 242 1102 snake~ out;
#X obj 242 1219 dac~;
#X obj -4 -41 loadbang;
#X obj 236 544 snake~ out;
#X obj 236 571 min~;
#X obj 8 669 *~;
#X obj 236 517 abs~;
#X obj 236 598 mov.avg~ 4 4;
#X obj 236 625 >~ 1e-06;
#X obj 8 800 +~;
#X obj 46 800 +~;
#X obj 16 1030 loadbang;
#X obj 16 1120 plugin_latency;
#X obj 16 1060 1024;
#X obj 20 37 hsl 128 17 -1 1 0 1 p empty empty -2 -8 0 10 #e4c417 #4d4d4d #373737 12700 1;
#X obj 20 82 hsl 128 17 -1 1 0 1 a empty empty -2 -8 0 10 #e4c417 #4d4d4d #373737 11192 1;
#X obj 242 1004 delay~ 512 512;
#X obj 242 978 snake~ out;
#X obj 349 1004 delay~ 512 512;
#X obj 242 1030 snake~ in;
#X obj 479 978 snake~ out;
#X obj 479 1030 snake~ in;
#X obj 479 1004 delay~ 768 768;
#X obj 595 1004 delay~ 768 768;
#X obj 17 110 tgl 25 1 mr empty empty 17 7 0 10 #e4e4e4 #4d4d4d #373737 1 1;
#X text 46 112 Multiresolution;
#X obj 381 800 r mr;
#X obj 756 1004 delay~ 512 512;
#X obj 756 978 snake~ out;
#X obj 863 1004 delay~ 512 512;
#X obj 756 1030 snake~ in;
#X obj 790 706 r a, f 4;
#X obj 807 729 r p, f 4;
#X obj 825 752 r mr;
#X obj 825 777 expr 1-$f1;
#N canvas 0 50 450 300 mtos 0;
#X obj 51 43 inlet~;
#X obj 220 43 inlet~;
#X obj 51 459 outlet~;
#X obj 51 109 +~;
#X obj 209 109 -~;
#X obj 392 43 inlet~;
#X obj 561 43 inlet~;
#X obj 392 109 +~;
#X obj 550 109 -~;
#X obj 684 43 inlet;
#X obj 51 249 *~, f 6;
#X obj 106 249 *~, f 6;
#X obj 684 79 expr 1-$f1;
#X obj 51 339 +~;
#X obj 209 459 outlet~;
#X obj 209 249 *~, f 6;
#X obj 264 249 *~, f 6;
#X obj 209 339 +~;
#X obj 392 459 outlet~;
#X obj 392 249 *~, f 6;
#X obj 447 249 *~, f 6;
#X obj 392 339 +~;
#X obj 550 459 outlet~;
#X obj 550 249 *~, f 6;
#X obj 605 249 *~, f 6;
#X obj 550 339 +~;
#X connect 0 0 3 0;
#X connect 0 0 4 0;
#X connect 0 0 11 0;
#X connect 1 0 4 1;
#X connect 1 0 3 1;
#X connect 1 0 16 0;
#X connect 3 0 10 0;
#X connect 4 0 15 0;
#X connect 5 0 7 0;
#X connect 5 0 8 0;
#X connect 5 0 20 0;
#X connect 6 0 8 1;
#X connect 6 0 7 1;
#X connect 6 0 24 0;
#X connect 7 0 19 0;
#X connect 8 0 23 0;
#X connect 9 0 10 1;
#X connect 9 0 15 1;
#X connect 9 0 19 1;
#X connect 9 0 12 0;
#X connect 9 0 23 1;
#X connect 10 0 13 0;
#X connect 11 0 13 0;
#X connect 12 0 11 1;
#X connect 12 0 16 1;
#X connect 12 0 24 1;
#X connect 12 0 20 1;
#X connect 13 0 2 0;
#X connect 15 0 17 0;
#X connect 16 0 17 0;
#X connect 17 0 14 0;
#X connect 19 0 21 0;
#X connect 20 0 21 0;
#X connect 21 0 18 0;
#X connect 23 0 25 0;
#X connect 24 0 25 0;
#X connect 25 0 22 0;
#X restore 8 432 pd mtos;
#X f 37;
#X obj 17 143 tgl 25 1 ms empty empty 17 7 0 10 #e4e4e4 #4d4d4d #373737 1 1;
#X text 46 145 Mid-side;
#N canvas 0 50 450 300 stom 0;
#X obj 51 43 inlet~;
#X obj 220 43 inlet~;
#X obj 51 459 outlet~;
#X obj 51 109 +~;
#X obj 209 109 -~;
#X obj 684 43 inlet;
#X obj 51 249 *~, f 6;
#X obj 106 249 *~, f 6;
#X obj 684 79 expr 1-$f1;
#X obj 51 339 +~;
#X obj 209 459 outlet~;
#X obj 209 249 *~, f 6;
#X obj 264 249 *~, f 6;
#X obj 209 339 +~;
#X obj 209 279 /~ 2;
#X obj 51 279 /~ 2;
#X connect 0 0 3 0;
#X connect 0 0 4 0;
#X connect 0 0 7 0;
#X connect 1 0 4 1;
#X connect 1 0 3 1;
#X connect 1 0 12 0;
#X connect 3 0 6 0;
#X connect 4 0 11 0;
#X connect 5 0 6 1;
#X connect 5 0 11 1;
#X connect 5 0 8 0;
#X connect 6 0 15 0;
#X connect 7 0 9 0;
#X connect 8 0 7 1;
#X connect 8 0 12 1;
#X connect 9 0 2 0;
#X connect 11 0 14 0;
#X connect 12 0 13 0;
#X connect 13 0 10 0;
#X connect 14 0 13 0;
#X connect 15 0 9 0;
#X restore 242 1158 pd stom;
#X f 17;
#X obj 362 17 tgl 25 1 empty empty empty 17 7 0 10 #e4e4e4 #4d4d4d #373737 0 1;
#X text 392 11 Steal pitch;
#X text 391 27 (side->front only);
#X obj 8 927 morphingtool-xsynth 1024 0 16, f 20;
#X obj 242 927 morphingtool-xsynth 512 8 32, f 20;
#X obj 479 927 morphingtool-xsynth 256 16 128, f 19;
#X obj 756 927 morphingtool-xsynth 512 0 256, f 19;
#X obj 8 485 morphingtool-pitchsteal;
#X obj 366 61 hsl 128 17 0 200 0 1 empty empty empty -2 -8 0 10 #e4e4e4 #4d4d4d #373737 0 1;
#X text 359 75 Retune time;
#X obj 366 101 hsl 128 17 40 70 0 1 empty empty empty -2 -8 0 10 #e4e4e4 #4d4d4d #373737 0 1;
#X text 359 115 Retune threshold;
#X text 359 169 Octave;
#X obj 16 1090 - 64;
#X obj 20 60 hsl 128 17 -1 1 0 1 empty empty empty -2 -8 0 10 #e4e4e4 #4d4d4d #373737 12700 1;
#X obj -102 35 param AToB;
#X obj -102 81 param BToA;
#X text 61 35 A -> B;
#X text 61 80 B -> A;
#X obj 422 280 cnv 15 100 17 empty empty empty 20 12 0 14 #e4c417 #373737 0;
#X text 432 278 Automatable;
#X obj 71 8 bng 25 250 50 0 empty empty empty 17 7 0 10 #e4e4e4 #4d4d4d #373737;
#X obj 28 -2 0;
#X obj 436 800 r dc;
#X obj 841 800 r dc;
#X obj 20 191 hsl 128 17 -1 1 0 1 dc empty empty -2 -8 0 10 #e4c41e #4d4d4d #373737 0 1;
#X obj -240 191 param TimeBlur;
#X obj 20 256 hsl 128 17 -1 1 0 1 pn empty empty -2 -8 0 10 #e4c41e #4d4d4d #373737 1616 1;
#X obj 538 800 r pn;
#X obj 858 823 r pn;
#X obj 363 143 nbx 6 29 -6 6 0 1 empty empty empty 0 -8 0 10 #e4e4e4 #373737 #373737 1 256;
#X obj 175 191 hsl 128 17 0 1 0 1 dirt empty empty -2 -8 0 10 #e4c41e #4d4d4d #373737 0 1;
#X obj -209 282 param Dirt;
#X msg -220 35 create \, range -1 1;
#X msg -220 81 create \, range -1 1;
#X msg -370 191 create \, range 0 20;
#X msg -326 282 create \, range 0 1;
#X text 14 205 Time blur;
#X obj 182 688 r dirt, f 7;
#X obj 8 712 morphingtool-bimonox, f 34;
#X text 169 205 Dirt (side->front only);
#X obj 18 228 tgl 17 1 freeze empty empty 17 7 0 10 #e4c41e #4d4d4d #373737 0 1;
#X text 59 226 Freeze;
#X obj 603 800 r freeze;
#X obj 875 845 r freeze;
#X obj 193 -89 param Freeze;
#X msg 63 -89 create \, range 0 2;
#X obj 39 228 bng 17 250 50 0 empty empty empty 17 7 0 10 #e4e4e4 #4d4d4d #373737;
#X obj 297 334 t b b;
#X obj 297 390 1;
#X obj 338 390 0;
#X obj 297 416 s freeze;
#X obj 297 362 del 1 1024 samples;
#X obj 107 8 tgl 25 1 empty empty empty 17 7 0 10 #e4e4e4 #4d4d4d #373737 0 1;
#N canvas 0 50 450 300 selfmorph 0;
#X obj 35 15 inlet~;
#X obj 108 15 inlet~;
#X obj 200 15 inlet~;
#X obj 273 15 inlet~;
#X obj 35 253 outlet~;
#X obj 108 253 outlet~;
#X obj 200 247 outlet~;
#X obj 273 247 outlet~;
#X obj 404 12 inlet;
#X obj 200 133 switchedinlet;
#X obj 304 133 switchedinlet;
#X connect 0 0 4 0;
#X connect 0 0 9 1;
#X connect 1 0 5 0;
#X connect 1 0 10 1;
#X connect 2 0 9 0;
#X connect 3 0 10 0;
#X connect 8 0 10 2;
#X connect 8 0 9 2;
#X connect 9 0 6 0;
#X connect 10 0 7 0;
#X restore 8 382 pd selfmorph;
#X f 37;
#X text 136 10 B = A;
#X text 14 270 Phase noise;
#X msg -258 231 create \, range -1 1;
#X obj -264 231 param PhaseNoise;
#X text 344 300 Neputevshina's morphing tool;
#X obj 273 800 r p, f 4;
#X obj 313 800 r a, f 4;
#X obj 95 688 r p, f 4;
#X obj 138 688 r a, f 4;
#X text -159 -74 TODO Channels instead of wires in GUI, f 20;
#X obj -108 -13 orbit;
#X obj 20 294 hsl 128 17 -1 1 0 1 empty empty empty -2 -8 0 10 #e4e4e4 #4d4d4d #373737 0 1;
#X obj -72 329 orbit;
#X connect 2 0 98 0;
#X connect 2 1 98 1;
#X connect 2 2 98 2;
#X connect 2 3 98 3;
#X connect 3 0 10 0;
#X connect 4 0 11 0;
#X connect 4 0 83 1;
#X connect 5 0 43 0;
#X connect 5 1 43 1;
#X connect 7 0 20 0;
#X connect 7 0 69 0;
#X connect 7 0 19 0;
#X connect 7 0 71 0;
#X connect 7 0 77 0;
#X connect 7 0 78 0;
#X connect 7 0 79 0;
#X connect 7 0 101 0;
#X connect 7 0 80 0;
#X connect 7 0 52 0;
#X connect 7 0 54 0;
#X connect 7 0 74 0;
#X connect 7 0 90 0;
#X connect 8 0 9 0;
#X connect 8 1 9 1;
#X connect 9 0 12 0;
#X connect 10 0 83 0;
#X connect 11 0 8 0;
#X connect 12 0 13 0;
#X connect 13 0 10 1;
#X connect 14 0 49 0;
#X connect 14 0 47 0;
#X connect 14 0 48 0;
#X connect 14 0 50 0;
#X connect 15 0 49 1;
#X connect 15 0 47 1;
#X connect 15 0 48 1;
#X connect 15 0 50 1;
#X connect 16 0 18 0;
#X connect 18 0 57 0;
#X connect 19 0 59 0;
#X connect 19 0 109 1;
#X connect 20 0 60 0;
#X connect 20 0 109 2;
#X connect 21 0 24 0;
#X connect 22 0 21 0;
#X connect 22 1 23 0;
#X connect 23 0 24 1;
#X connect 24 0 5 0;
#X connect 25 0 27 0;
#X connect 25 1 28 0;
#X connect 26 0 5 0;
#X connect 27 0 26 0;
#X connect 28 0 26 1;
#X connect 31 0 49 4;
#X connect 31 0 47 4;
#X connect 31 0 48 4;
#X connect 32 0 35 0;
#X connect 33 0 32 0;
#X connect 33 1 34 0;
#X connect 34 0 35 1;
#X connect 35 0 5 0;
#X connect 36 0 50 2;
#X connect 37 0 50 3;
#X connect 38 0 39 0;
#X connect 39 0 50 4;
#X connect 40 0 51 0;
#X connect 40 1 51 1;
#X connect 40 2 4 0;
#X connect 40 2 51 2;
#X connect 40 3 4 1;
#X connect 41 0 40 4;
#X connect 41 0 43 2;
#X connect 43 0 6 0;
#X connect 43 1 6 1;
#X connect 44 0 51 6;
#X connect 47 0 5 0;
#X connect 48 0 22 0;
#X connect 49 0 25 0;
#X connect 50 0 33 0;
#X connect 51 0 3 0;
#X connect 51 1 3 1;
#X connect 52 0 51 3;
#X connect 54 0 51 5;
#X connect 57 0 17 0;
#X connect 58 0 109 0;
#X connect 59 0 19 0;
#X connect 60 0 20 0;
#X connect 65 0 66 0;
#X connect 66 0 58 0;
#X connect 67 0 49 5;
#X connect 67 0 47 5;
#X connect 67 0 48 5;
#X connect 68 0 50 5;
#X connect 69 0 70 0;
#X connect 69 0 111 1;
#X connect 70 0 69 0;
#X connect 71 0 102 0;
#X connect 71 0 111 2;
#X connect 72 0 49 6;
#X connect 72 0 47 6;
#X connect 72 0 48 6;
#X connect 73 0 50 6;
#X connect 74 0 51 4;
#X connect 75 0 76 0;
#X connect 76 0 75 0;
#X connect 77 0 59 0;
#X connect 78 0 60 0;
#X connect 79 0 70 0;
#X connect 80 0 76 0;
#X connect 82 0 83 4;
#X connect 83 0 14 0;
#X connect 83 1 15 0;
#X connect 85 0 89 0;
#X connect 87 0 22 0;
#X connect 87 0 49 7;
#X connect 87 0 47 7;
#X connect 87 0 48 7;
#X connect 88 0 50 7;
#X connect 89 0 85 0;
#X connect 90 0 89 0;
#X connect 91 0 92 0;
#X connect 92 0 96 0;
#X connect 92 1 94 0;
#X connect 93 0 95 0;
#X connect 93 0 85 0;
#X connect 94 0 95 0;
#X connect 96 0 93 0;
#X connect 97 0 98 4;
#X connect 98 0 40 0;
#X connect 98 1 40 1;
#X connect 98 2 40 2;
#X connect 98 3 40 3;
#X connect 101 0 102 0;
#X connect 102 0 71 0;
#X connect 104 0 49 2;
#X connect 104 0 47 2;
#X connect 104 0 48 2;
#X connect 105 0 49 3;
#X connect 105 0 47 3;
#X connect 105 0 48 3;
#X connect 106 0 83 2;
#X connect 107 0 83 3;
#X connect 109 0 19 0;
#X connect 109 1 20 0;
#X connect 110 0 111 0;
#X connect 111 0 69 0;
#X connect 111 1 71 0;
