#N canvas 827 239 527 327 12;
#X obj 221 18 cnv 15 168 197 empty empty empty 20 12 0 14 #efefef #373737 0;
#X obj 8 345 adc~ 1 2 3 4, f 29;
#X obj 8 505 snake~ in, f 11;
#X obj 175 435 snake~ in, f 11;
#X obj 242 952 snake~ out;
#X obj 242 1069 dac~;
#X obj -4 -41 loadbang;
#X obj 236 494 snake~ out;
#X obj 236 521 min~;
#X obj 8 619 *~;
#X obj 236 467 abs~;
#X obj 236 548 mov.avg~ 4 4;
#X obj 236 575 >~ 1e-06;
#X obj 8 650 +~;
#X obj 128 650 +~;
#X obj 420 1022 loadbang;
#X obj 420 1118 plugin_latency;
#X obj 420 1053 1024;
#X obj 17 31 hsl 128 17 -1 1 0 1 a empty empty -2 -8 0 10 #e4c417 #4d4d4d #373737 12700 1;
#X obj 17 77 hsl 128 17 -1 1 0 1 p empty empty -2 -8 0 10 #e4c417 #4d4d4d #373737 12700 1;
#X obj 273 650 r a, f 4;
#X obj 313 650 r p, f 4;
#X obj 242 854 delay~ 512 512;
#X obj 242 828 snake~ out;
#X obj 349 854 delay~ 512 512;
#X obj 242 880 snake~ in;
#X obj 479 828 snake~ out;
#X obj 479 880 snake~ in;
#X obj 479 854 delay~ 768 768;
#X obj 595 854 delay~ 768 768;
#X obj 14 114 tgl 25 1 mr empty empty 17 7 0 10 #e4e4e4 #4d4d4d #373737 1 1;
#X text 43 115 Multiresolution;
#X obj 381 650 r mr;
#X obj 756 854 delay~ 512 512;
#X obj 756 828 snake~ out;
#X obj 863 854 delay~ 512 512;
#X obj 756 880 snake~ in;
#X obj 808 625 r a, f 4;
#X obj 834 647 r p, f 4;
#X obj 861 672 r mr;
#X obj 861 698 expr 1-$f1;
#N canvas 0 50 450 300 mtos 0;
#X obj 51 43 inlet~;
#X obj 220 43 inlet~;
#X obj 51 459 outlet~;
#X obj 51 109 +~;
#X obj 209 109 -~;
#X obj 51 140 /~ 2;
#X obj 209 140 /~ 2;
#X obj 392 43 inlet~;
#X obj 561 43 inlet~;
#X obj 392 109 +~;
#X obj 550 109 -~;
#X obj 392 140 /~ 2;
#X obj 550 140 /~ 2;
#X obj 684 43 inlet;
#X obj 51 249 *~, f 6;
#X obj 106 249 *~, f 6;
#X obj 684 79 expr 1-$f1;
#X obj 51 339 +~;
#X obj 209 459 outlet~;
#X obj 209 249 *~, f 6;
#X obj 264 249 *~, f 6;
#X obj 209 339 +~;
#X obj 392 459 outlet~;
#X obj 392 249 *~, f 6;
#X obj 447 249 *~, f 6;
#X obj 392 339 +~;
#X obj 550 459 outlet~;
#X obj 550 249 *~, f 6;
#X obj 605 249 *~, f 6;
#X obj 550 339 +~;
#X connect 0 0 3 0;
#X connect 0 0 4 0;
#X connect 0 0 15 0;
#X connect 1 0 4 1;
#X connect 1 0 3 1;
#X connect 1 0 20 0;
#X connect 3 0 5 0;
#X connect 4 0 6 0;
#X connect 5 0 14 0;
#X connect 6 0 19 0;
#X connect 7 0 9 0;
#X connect 7 0 10 0;
#X connect 7 0 24 0;
#X connect 8 0 10 1;
#X connect 8 0 9 1;
#X connect 8 0 28 0;
#X connect 9 0 11 0;
#X connect 10 0 12 0;
#X connect 11 0 23 0;
#X connect 12 0 27 0;
#X connect 13 0 14 1;
#X connect 13 0 19 1;
#X connect 13 0 23 1;
#X connect 13 0 16 0;
#X connect 13 0 27 1;
#X connect 14 0 17 0;
#X connect 15 0 17 0;
#X connect 16 0 15 1;
#X connect 16 0 20 1;
#X connect 16 0 28 1;
#X connect 16 0 24 1;
#X connect 17 0 2 0;
#X connect 19 0 21 0;
#X connect 20 0 21 0;
#X connect 21 0 18 0;
#X connect 23 0 25 0;
#X connect 24 0 25 0;
#X connect 25 0 22 0;
#X connect 27 0 29 0;
#X connect 28 0 29 0;
#X connect 29 0 26 0;
#X restore 8 382 pd mtos;
#X f 37;
#X obj 14 212 tgl 25 1 empty empty empty 17 7 0 10 #e4e4e4 #4d4d4d #373737 1 1;
#X text 46 213 Mid-side;
#N canvas 0 50 450 300 stom 0;
#X obj 51 43 inlet~;
#X obj 220 43 inlet~;
#X obj 51 459 outlet~;
#X obj 51 109 +~;
#X obj 209 109 -~;
#X obj 371 87 /~ 2;
#X obj 314 56 /~ 2;
#X obj 684 43 inlet;
#X obj 51 249 *~, f 6;
#X obj 106 249 *~, f 6;
#X obj 684 79 expr 1-$f1;
#X obj 51 339 +~;
#X obj 209 459 outlet~;
#X obj 209 249 *~, f 6;
#X obj 264 249 *~, f 6;
#X obj 209 339 +~;
#X connect 0 0 3 0;
#X connect 0 0 4 0;
#X connect 0 0 9 0;
#X connect 1 0 4 1;
#X connect 1 0 3 1;
#X connect 1 0 14 0;
#X connect 3 0 8 0;
#X connect 4 0 13 0;
#X connect 7 0 8 1;
#X connect 7 0 13 1;
#X connect 7 0 10 0;
#X connect 8 0 11 0;
#X connect 9 0 11 0;
#X connect 10 0 9 1;
#X connect 10 0 14 1;
#X connect 11 0 2 0;
#X connect 13 0 15 0;
#X connect 14 0 15 0;
#X connect 15 0 12 0;
#X restore 242 1008 pd stom;
#X f 17;
#X obj 230 30 tgl 25 1 mr empty empty 17 7 0 10 #e4e4e4 #4d4d4d #373737 0 1;
#X text 260 25 Steal pitch;
#X text 260 41 (side->front only);
#X obj 8 777 morphingtool-xsynth 1024 0 16, f 20;
#X obj 242 777 morphingtool-xsynth 512 8 32, f 20;
#X obj 479 777 morphingtool-xsynth 256 16 128, f 19;
#X obj 756 777 morphingtool-xsynth 512 0 256, f 19;
#X obj 8 453 morphingtool-pitchsteal;
#X obj 238 75 hsl 128 17 0 200 0 1 empty empty empty -2 -8 0 10 #e4e4e4 #4d4d4d #373737 0 1;
#X text 231 89 Retune time;
#X obj 238 122 hsl 128 17 40 70 0 1 empty empty empty -2 -8 0 10 #e4e4e4 #4d4d4d #373737 0 1;
#X text 231 135 Retune threshold;
#X floatatom 233 161 5 0 0 0 - - - 24;
#X text 231 186 Octave;
#X text 14 238 Almost always sounds better when enabled, f 24;
#X obj 420 1083 - 64;
#X obj 17 54 hsl 128 17 -1 1 0 0 empty empty empty -2 -8 0 10 #e4e4e4 #4d4d4d #373737 0 1;
#X obj -102 29 param AToB;
#X obj -102 75 param BToA;
#X obj -102 114 t b b;
#X text 424 290 Morphing tool;
#X text 14 140 Triple the CPU usage \, but quite the improvement in quality, f 24;
#X text 59 28 A -> B;
#X text 59 74 B -> A;
#X obj 14 295 cnv 15 100 17 empty empty empty 20 12 0 14 #e4c417 #373737 0;
#X text 23 293 Automatable;
#X obj 68 2 bng 25 250 50 0 empty empty empty 17 7 0 10 #e4e4e4 #4d4d4d #373737;
#X obj 102 7 0;
#X obj 436 650 r dc;
#X obj 879 727 r dc;
#X obj 238 257 hsl 128 17 0 20 0 1 dc empty empty -2 -8 0 10 #e4c41e #4d4d4d #373737 0 1;
#X text 231 272 Time blur;
#X obj 369 257 param TimeBlur;
#X obj 420 366 bng 25 250 50 0 empty empty empty 17 7 0 10 #e4e4e4 #4d4d4d #373737;
#X floatatom 420 479 5 0 0 0 - - - 12;
#X obj 420 453 expr max(1 \, floor($f1/48000))*$f2;
#X obj 420 398 t b b;
#X obj 608 427 256;
#X obj 420 427 8000;
#X connect 1 0 41 0;
#X connect 1 1 41 1;
#X connect 1 2 41 2;
#X connect 1 3 41 3;
#X connect 2 0 9 0;
#X connect 3 0 10 0;
#X connect 3 0 14 0;
#X connect 4 0 44 0;
#X connect 4 1 44 1;
#X connect 6 0 19 0;
#X connect 6 0 64 0;
#X connect 6 0 75 0;
#X connect 6 0 18 0;
#X connect 7 0 8 0;
#X connect 7 1 8 1;
#X connect 8 0 11 0;
#X connect 9 0 13 0;
#X connect 10 0 7 0;
#X connect 11 0 12 0;
#X connect 12 0 9 1;
#X connect 13 0 48 0;
#X connect 13 0 49 0;
#X connect 13 0 50 0;
#X connect 13 0 51 0;
#X connect 14 0 48 1;
#X connect 14 0 49 1;
#X connect 14 0 50 1;
#X connect 14 0 51 1;
#X connect 15 0 17 0;
#X connect 17 0 60 0;
#X connect 18 0 62 0;
#X connect 19 0 63 0;
#X connect 20 0 48 2;
#X connect 20 0 49 2;
#X connect 20 0 50 2;
#X connect 21 0 48 3;
#X connect 21 0 49 3;
#X connect 21 0 50 3;
#X connect 22 0 25 0;
#X connect 23 0 22 0;
#X connect 23 1 24 0;
#X connect 24 0 25 1;
#X connect 25 0 4 0;
#X connect 26 0 28 0;
#X connect 26 1 29 0;
#X connect 27 0 4 0;
#X connect 28 0 27 0;
#X connect 29 0 27 1;
#X connect 32 0 48 4;
#X connect 32 0 49 4;
#X connect 32 0 50 4;
#X connect 33 0 36 0;
#X connect 34 0 33 0;
#X connect 34 1 35 0;
#X connect 35 0 36 1;
#X connect 36 0 4 0;
#X connect 37 0 51 2;
#X connect 38 0 51 3;
#X connect 39 0 40 0;
#X connect 40 0 51 4;
#X connect 41 0 52 0;
#X connect 41 1 52 1;
#X connect 41 2 3 0;
#X connect 41 2 52 2;
#X connect 41 3 3 1;
#X connect 42 0 41 4;
#X connect 42 0 44 2;
#X connect 44 0 5 0;
#X connect 44 1 5 1;
#X connect 45 0 52 6;
#X connect 48 0 4 0;
#X connect 49 0 23 0;
#X connect 50 0 26 0;
#X connect 51 0 34 0;
#X connect 52 0 2 0;
#X connect 52 1 2 1;
#X connect 53 0 52 3;
#X connect 55 0 52 5;
#X connect 57 0 52 4;
#X connect 60 0 16 0;
#X connect 61 0 19 0;
#X connect 61 0 18 0;
#X connect 62 0 18 0;
#X connect 63 0 19 0;
#X connect 64 0 30 0;
#X connect 64 0 42 0;
#X connect 64 0 45 0;
#X connect 64 1 30 0;
#X connect 64 1 42 0;
#X connect 64 1 45 0;
#X connect 71 0 72 0;
#X connect 72 0 61 0;
#X connect 73 0 48 5;
#X connect 73 0 49 5;
#X connect 73 0 50 5;
#X connect 74 0 51 5;
#X connect 75 0 77 0;
#X connect 77 0 75 0;
#X connect 78 0 81 0;
#X connect 80 0 79 0;
#X connect 81 0 83 0;
#X connect 81 1 82 0;
#X connect 82 0 80 1;
#X connect 83 0 80 0;
