#N canvas 827 239 527 327 12;
#N canvas 733 172 450 300 (subpatch) 0;
#X obj 45 73 hilbert~;
#X obj 172 73 hilbert~;
#X obj 125 273 xfade.mc~;
#X obj 45 273 xfade.mc~;
#X obj 205 273 xfade.mc~;
#X obj 45 330 *~;
#X obj 125 330 *~;
#X obj 45 149 snake~ in, f 21;
#X obj 341 73 hilbert~;
#X obj 468 73 hilbert~;
#X obj 341 149 snake~ in, f 21;
#X obj 45 357 complex-mod~, f 26;
#X obj 112 122 snake~ in, f 21;
#X obj 408 122 snake~ in, f 21;
#X obj 45 383 outlet~;
#X obj 366 -4 inlet~, f 8;
#X obj 607 122 inlet;
#X obj 901 47 inlet;
#X obj 901 73 s fqsh\$0;
#X obj 205 330 r fqsh\$0;
#X obj 341 47 snake~ out, f 21;
#X obj 70 -4 inlet~, f 8;
#X obj 45 47 snake~ out, f 21;
#X obj 341 383 outlet~;
#X obj 341 273 xfade.mc~;
#X text 263 443 if a == 1 and p == -1 \, o2 = b;
#X text 263 465 if a == 1 and p == 1 \, o2 = b;
#X text 263 491 if a == -1 and p == 1 \, o2 = a;
#X text 263 516 if a == -1 and p == -1 \, o2 = a;
#X text 263 562 if dirt == 0 \, a = -xa \, p = xa \; if dirt == 1 \, a = -xa \, p = -xa;
#X obj 829 47 inlet;
#X obj 651 96 neg;
#X obj 699 224 lerp, f 9;
#X obj 721 159 neg;
#X obj 699 197 hot 3, f 9;
#X obj 607 168 neg;
#X obj 699 41 inlet;
#X obj 866 178 b;
#X obj 863 204 1;
#X obj 829 248 switch~;
#X obj 829 149 moses 1;
#X obj 45 181 norm-mag;
#X obj 341 181 norm-mag;
#X obj 607 278 s xfp\$0;
#X obj 699 278 s xfa\$0;
#X obj 175 181 r xfp\$0;
#X obj 254 181 r xfa\$0;
#X connect 0 0 7 0;
#X connect 0 1 12 0;
#X connect 1 0 7 1;
#X connect 1 1 12 1;
#X connect 2 0 6 0;
#X connect 3 0 5 0;
#X connect 4 0 5 1;
#X connect 4 0 6 1;
#X connect 5 0 11 0;
#X connect 6 0 11 1;
#X connect 7 0 41 0;
#X connect 8 0 10 0;
#X connect 8 1 13 0;
#X connect 9 0 10 1;
#X connect 9 1 13 1;
#X connect 10 0 42 0;
#X connect 11 0 14 0;
#X connect 12 0 41 1;
#X connect 13 0 42 1;
#X connect 15 0 20 0;
#X connect 15 0 24 0;
#X connect 16 0 34 0;
#X connect 16 0 33 0;
#X connect 16 0 35 0;
#X connect 17 0 18 0;
#X connect 19 0 11 2;
#X connect 20 0 8 0;
#X connect 20 1 9 0;
#X connect 21 0 22 0;
#X connect 21 0 24 1;
#X connect 22 0 0 0;
#X connect 22 1 1 0;
#X connect 24 0 23 0;
#X connect 30 0 34 2;
#X connect 30 0 31 0;
#X connect 30 0 40 0;
#X connect 32 0 44 0;
#X connect 33 0 34 1;
#X connect 34 0 32 0;
#X connect 34 1 32 1;
#X connect 34 2 32 2;
#X connect 35 0 43 0;
#X connect 37 0 38 0;
#X connect 38 0 39 0;
#X connect 40 0 39 0;
#X connect 40 1 37 0;
#X connect 41 0 3 0;
#X connect 41 1 2 0;
#X connect 41 2 4 1;
#X connect 42 0 3 1;
#X connect 42 1 2 1;
#X connect 42 2 4 0;
#X connect 45 0 3 2;
#X connect 45 0 2 2;
#X connect 45 0 24 2;
#X connect 46 0 4 2;
#X restore 48 136 pd;
#X obj 20 263 outlet~;
#X obj 84 14 inlet~, f 8;
#X obj 203 14 inlet;
#X obj 20 14 inlet~, f 8;
#X obj 103 263 outlet~;
#X obj 284 14 inlet;
#X obj 242 14 inlet;
#X obj 325 14 inlet;
#X obj 20 194 switchedinlet;
#X obj 103 223 switchedinlet;
#X obj 440 162 hilbert~;
#X obj 313 238 snake~ in, f 21;
#X obj 313 136 snake~ out, f 21;
#X obj 313 162 hilbert~;
#X obj 313 200 complex-mod~;
#X obj 440 200 complex-mod~;
#X connect 0 0 9 1;
#X connect 2 0 0 1;
#X connect 2 0 10 0;
#X connect 2 0 13 0;
#X connect 3 0 0 2;
#X connect 4 0 0 0;
#X connect 4 0 9 0;
#X connect 6 0 0 4;
#X connect 6 0 9 2;
#X connect 6 0 10 2;
#X connect 7 0 0 3;
#X connect 8 0 0 5;
#X connect 9 0 1 0;
#X connect 10 0 5 0;
#X connect 11 0 16 0;
#X connect 11 1 16 1;
#X connect 12 0 10 1;
#X connect 13 0 14 0;
#X connect 13 1 11 0;
#X connect 14 0 15 0;
#X connect 14 1 15 1;
#X connect 15 0 12 0;
#X connect 16 0 12 1;
