#N canvas 827 239 527 327 12;
#X obj 216 30 inlet~;
#X obj 201 92 *~;
#X obj 159 30 inlet~;
#X obj 159 130 +~;
#X obj 159 165 sqrt~;
#X obj 159 291 outlet~;
#X obj 159 91 *~;
#X obj 28 221 /~;
#X obj 83 221 /~;
#X obj 28 290 outlet~;
#X obj 83 290 outlet~;
#X connect 0 0 1 1;
#X connect 0 0 1 0;
#X connect 0 0 8 0;
#X connect 1 0 3 1;
#X connect 2 0 6 0;
#X connect 2 0 6 1;
#X connect 2 0 7 0;
#X connect 3 0 4 0;
#X connect 4 0 5 0;
#X connect 4 0 7 1;
#X connect 4 0 8 1;
#X connect 6 0 3 0;
#X connect 7 0 9 0;
#X connect 8 0 10 0;
