#N canvas 0 50 450 300 diff 1;
#X obj 77 34 inlet;
#X obj 205 34 inlet;
#X obj 77 374 outlet;
#X obj 309 34 inlet;
#X obj 205 374 outlet;
#X obj 106 126 f;
#X obj 91 172 -;
#X obj 205 183 +;
#X obj 309 183 +;
#X obj 77 60 t f f b;
#X connect 0 0 9 0;
#X connect 1 0 7 1;
#X connect 3 0 8 1;
#X connect 5 0 6 1;
#X connect 6 0 8 0;
#X connect 6 0 7 0;
#X connect 7 0 2 0;
#X connect 8 0 4 0;
#X connect 9 1 6 0;
#X connect 9 1 5 1;
#X connect 9 2 5 0;
