#N canvas 0 50 450 300 12;
#X obj 164 34 inlet;
#X obj 88 34 inlet;
#X obj 77 384 outlet;
#X obj 306 34 inlet;
#X obj 295 384 outlet;
#X obj 188 121 f;
#X obj 164 175 -, f 6;
#X obj 77 250 +;
#X obj 295 250 +;
#X obj 164 207 spigot;
#X obj 222 141 loadbang;
#X obj 222 167 0;
#X obj 222 101 1;
#X obj 164 60 t f b, f 7;
#X connect 0 0 13 0;
#X connect 1 0 7 1;
#X connect 3 0 8 1;
#X connect 5 0 6 1;
#X connect 6 0 9 0;
#X connect 7 0 2 0;
#X connect 8 0 4 0;
#X connect 9 0 8 0;
#X connect 9 0 7 0;
#X connect 10 0 11 0;
#X connect 11 0 9 1;
#X connect 12 0 9 1;
#X connect 13 0 6 0;
#X connect 13 0 5 1;
#X connect 13 1 12 0;
#X connect 13 1 5 0;
