#N canvas 827 239 527 327 12;
#X obj -24 641 snake~ in;
#X obj -24 1278 snake~ out;
#X obj -24 1378 dac~;
#N canvas 0 50 450 300 life-detector 0;
#X obj 299 130 abs~;
#X obj 299 201 mov.avg~ 4 4;
#X obj 299 228 >~ 1e-06;
#X obj 415 201 mov.avg~ 4 4;
#X obj 415 228 >~ 1e-06;
#X obj 299 59 inlet~;
#X obj 415 59 inlet~;
#X obj 87 59 inlet~;
#X obj 152 59 inlet~;
#X obj 415 130 abs~;
#X obj 87 322 *~;
#X obj 152 322 *~;
#X obj 87 372 outlet~;
#X obj 152 372 outlet~;
#X obj 396 301 max~;
#X obj 396 327 sig2float~ 200;
#X obj 396 372 outlet;
#X connect 0 0 1 0;
#X connect 1 0 2 0;
#X connect 2 0 10 1;
#X connect 2 0 14 0;
#X connect 3 0 4 0;
#X connect 4 0 11 1;
#X connect 4 0 14 1;
#X connect 5 0 0 0;
#X connect 6 0 9 0;
#X connect 7 0 10 0;
#X connect 8 0 11 0;
#X connect 9 0 3 0;
#X connect 10 0 12 0;
#X connect 11 0 13 0;
#X connect 14 0 15 0;
#X connect 15 0 16 0;
#X restore -24 1319 pd life-detector;
#X f 33;
#X obj 16 180 hsl 128 17 -1 1 0 1 amt empty empty -2 -8 0 10 #e4e4e4 #4d4d4d #373737 12700 1;
#X obj -260 687 plugin_latency;
#X obj -214 644 448;
#X obj -260 616 b;
#X obj -214 616 b;
#X obj 85 1055 xfade.mc~ -lin;
#X obj -24 1130 *~;
#X obj 116 1252 r~ orig;
#X obj 116 1278 snake_out~;
#X obj -106 687 s~ orig 2;
#X obj 16 51 hsl 128 17 0.001 2000 1 1 rls empty empty -2 -8 0 10 #e4e4e4 #4d4d4d #373737 2622 1;
#X obj 16 12 hsl 128 17 1e-06 10000 1 1 attk empty empty -2 -8 0 10 #e4e4e4 #4d4d4d #373737 6350 1;
#X obj 143 876 /~;
#X obj 410 819 *;
#X obj 325 869 *;
#X text 9 194 Amount;
#X msg 179 786 reset;
#X obj 235 1360 change;
#X obj 235 1386 moses 1;
#X obj 298 1422 delay 1 20 msec;
#X obj -24 1165 *~;
#X obj 258 1449 f;
#X text 298 1354 skip the +200 dbfs click after initialization of glide2, f 21;
#X obj 280 950 r amt;
#X obj 421 760 r attk;
#X obj 348 810 r rls;
#X obj -97 488 r lpon;
#X listbox 153 12 8 0 0 0 - attk-out - 12;
#X listbox 153 51 8 0 0 0 - rls-out - 12;
#X listbox 153 180 8 0 0 0 - amt-out - 12;
#X obj 410 868 s attk-out;
#X obj 385 894 s rls-out;
#X text 227 132 Gain reduction;
#X obj 410 793 > 0.1;
#X obj 348 1094 metro 1 24000 samp;
#X obj 348 1042 loadbang;
#X obj 348 1068 1;
#X obj 297 1176 tabwrite~ grl grr;
#N canvas 733 172 450 100 (subpatch) 1;
#X obj 200 0 cnv 15 9 50 empty empty empty 20 12 0 14 #5fc920 #373737 0;
#N canvas 0 0 450 250 (subpatch) 0;
#X array grl 24000 float 0;
#X array grr 24000 float 0;
#X array rngr 2 float 2;
#X array top 2 float 2;
#X coords 0 50 23999 -50 200 100 1;
#X restore 0 0 graph;
#X obj 200 50 cnv 15 9 50 empty empty empty 20 12 0 14 #e62026 #373737 0;
#X text 0 -5 +50dB;
#X text 1 81 -50dB;
#X coords 0 0 1 1 209 99 2 0 0;
#X restore 229 12 pd;
#N canvas 0 50 450 300 mtos 0;
#X obj 51 43 inlet~;
#X obj 220 43 inlet~;
#X obj 51 459 outlet~;
#X obj 51 109 +~;
#X obj 209 109 -~;
#X obj 392 43 inlet~;
#X obj 561 43 inlet~;
#X obj 392 109 +~;
#X obj 550 109 -~;
#X obj 684 43 inlet;
#X obj 51 249 *~, f 6;
#X obj 106 249 *~, f 6;
#X obj 684 79 expr 1-$f1;
#X obj 51 339 +~;
#X obj 209 459 outlet~;
#X obj 209 249 *~, f 6;
#X obj 264 249 *~, f 6;
#X obj 209 339 +~;
#X obj 392 459 outlet~;
#X obj 392 249 *~, f 6;
#X obj 447 249 *~, f 6;
#X obj 392 339 +~;
#X obj 550 459 outlet~;
#X obj 550 249 *~, f 6;
#X obj 605 249 *~, f 6;
#X obj 550 339 +~;
#X connect 0 0 3 0;
#X connect 0 0 4 0;
#X connect 0 0 11 0;
#X connect 1 0 4 1;
#X connect 1 0 3 1;
#X connect 1 0 16 0;
#X connect 3 0 10 0;
#X connect 4 0 15 0;
#X connect 5 0 7 0;
#X connect 5 0 8 0;
#X connect 5 0 20 0;
#X connect 6 0 8 1;
#X connect 6 0 7 1;
#X connect 6 0 24 0;
#X connect 7 0 19 0;
#X connect 8 0 23 0;
#X connect 9 0 10 1;
#X connect 9 0 15 1;
#X connect 9 0 19 1;
#X connect 9 0 12 0;
#X connect 9 0 23 1;
#X connect 10 0 13 0;
#X connect 11 0 13 0;
#X connect 12 0 11 1;
#X connect 12 0 16 1;
#X connect 12 0 24 1;
#X connect 12 0 20 1;
#X connect 13 0 2 0;
#X connect 15 0 17 0;
#X connect 16 0 17 0;
#X connect 17 0 14 0;
#X connect 19 0 21 0;
#X connect 20 0 21 0;
#X connect 21 0 18 0;
#X connect 23 0 25 0;
#X connect 24 0 25 0;
#X connect 25 0 22 0;
#X restore 282 546 pd mtos;
#X f 37;
#X obj 519 516 1;
#X obj 519 488 loadbang;
#X obj 596 488 bng 25 250 50 0 empty empty empty 17 7 0 10 #e4e4e4 #4d4d4d #373737;
#N canvas 0 50 450 300 stom 0;
#X obj 51 43 inlet~;
#X obj 220 43 inlet~;
#X obj 51 459 outlet~;
#X obj 51 109 +~;
#X obj 209 109 -~;
#X obj 684 43 inlet;
#X obj 51 249 *~, f 6;
#X obj 106 249 *~, f 6;
#X obj 684 79 expr 1-$f1;
#X obj 51 339 +~;
#X obj 209 459 outlet~;
#X obj 209 249 *~, f 6;
#X obj 264 249 *~, f 6;
#X obj 209 339 +~;
#X obj 209 279 /~ 2;
#X obj 51 279 /~ 2;
#X connect 0 0 3 0;
#X connect 0 0 4 0;
#X connect 0 0 7 0;
#X connect 1 0 4 1;
#X connect 1 0 3 1;
#X connect 1 0 12 0;
#X connect 3 0 6 0;
#X connect 4 0 11 0;
#X connect 5 0 6 1;
#X connect 5 0 11 1;
#X connect 5 0 8 0;
#X connect 6 0 15 0;
#X connect 7 0 9 0;
#X connect 8 0 7 1;
#X connect 8 0 12 1;
#X connect 9 0 2 0;
#X connect 11 0 14 0;
#X connect 12 0 13 0;
#X connect 13 0 10 0;
#X connect 14 0 13 0;
#X connect 15 0 9 0;
#X restore 255 651 pd stom;
#X f 17;
#X obj 255 691 snake~ in;
#X obj 16 229 hsl 128 17 0 1 0 1 slink empty empty -2 -8 0 10 #e4e4e4 #4d4d4d #373737 0 1;
#X listbox 153 229 8 0 0 0 - slink-out - 12;
#X text 9 243 Stereo link;
#X obj 596 530 r slink;
#X obj 298 618 *~;
#X obj 695 572 s slink-out;
#X obj 695 546 makefilename %d%%;
#X obj 695 516 * 100;
#X text 9 26 Release;
#X text 9 65 Attack;
#X obj 596 572 expr 1-$f1;
#X text 9 297 TODO LUFS envelope;
#X obj 85 1088 max~ 0;
#N canvas 0 50 450 300 deriv 0;
#X obj 75 17 inlet~;
#X obj 75 43 snake_out~;
#X obj 75 95 snake_in~;
#X obj 75 121 outlet~;
#X obj 75 69 biquad~ 0 0 1 -1 0;
#X obj 202 69 biquad~ 0 0 1 -1 0;
#X connect 0 0 1 0;
#X connect 1 0 4 0;
#X connect 1 1 5 0;
#X connect 2 0 3 0;
#X connect 4 0 2 0;
#X connect 5 0 2 1;
#X restore 507 1120 pd deriv;
#X obj 179 839 lag2~;
#X obj 325 843 > 0.02;
#X obj 280 976 expr ($f1+1)/2*100;
#X obj 457 999 makefilename %d%%;
#X obj 457 1025 s amt-out;
#X obj 131 960 *~;
#X obj 119 839 sigs~ 1 1;
#X obj 16 90 hsl 128 17 0 120 0 1 rng empty empty -2 -8 0 10 #e4e4e4 #4d4d4d #373737 12700 1;
#X listbox 153 90 8 0 0 0 - rng-out - 12;
#X text 9 104 Range;
#X obj 143 918 min~;
#X obj 213 868 r rng;
#X obj 597 793 r rng;
#X obj 597 885 s rng-out;
#X obj 213 894 dbtoa;
#X obj 597 859 makefilename %ddB;
#X obj 219 1055 /~;
#X obj -118 -52 bng 25 250 50 0 empty empty empty 17 7 0 10 #e4e4e4 #4d4d4d #373737;
#X obj -11 -20 2000;
#X obj -89 145 0.9;
#X obj -80 10 1500;
#X obj 481 14 vsl 17 128 -120 0 0 1 mkup empty empty 0 -9 0 10 #e4e4e4 #4d4d4d #373737 11742 1;
#X obj 219 1000 dbtoa;
#X listbox 461 149 8 0 0 0 - mkup - 12;
#X obj 219 976 r mkup;
#X text 463 169 Makeup;
#X obj -76 51 50;
#N canvas 0 50 450 300 dbtoa 0;
#X obj 21 28 inlet~;
#X obj 21 54 snake_out~;
#X obj 21 106 snake_in~;
#X obj 21 132 outlet~;
#X obj 21 80 dbtoa~;
#X obj 148 80 dbtoa~;
#X connect 0 0 1 0;
#X connect 1 0 4 0;
#X connect 1 1 5 0;
#X connect 2 0 3 0;
#X connect 4 0 2 0;
#X connect 5 0 2 1;
#X restore -144 833 pd dbtoa;
#N canvas 0 50 450 300 atodb 0;
#X obj 21 28 inlet~;
#X obj 21 54 snake_out~;
#X obj 21 106 snake_in~;
#X obj 21 132 outlet~;
#X obj 21 80 atodb~;
#X obj 154 80 atodb~;
#X connect 0 0 1 0;
#X connect 1 0 4 0;
#X connect 1 1 5 0;
#X connect 2 0 3 0;
#X connect 4 0 2 0;
#X connect 5 0 2 1;
#X restore 252 1074 pd atodb;
#N canvas 0 50 450 300 atodb 0;
#X obj 21 28 inlet~;
#X obj 21 54 snake_out~;
#X obj 21 106 snake_in~;
#X obj 21 132 outlet~;
#X obj 21 80 atodb~;
#X obj 154 80 atodb~;
#X connect 0 0 1 0;
#X connect 1 0 4 0;
#X connect 1 1 5 0;
#X connect 2 0 3 0;
#X connect 4 0 2 0;
#X connect 5 0 2 1;
#X restore 346 791 pd atodb;
#N canvas 0 50 450 300 dbtoa 0;
#X obj 21 28 inlet~;
#X obj 21 54 snake_out~;
#X obj 21 106 snake_in~;
#X obj 21 132 outlet~;
#X obj 21 80 dbtoa~;
#X obj 148 80 dbtoa~;
#X connect 0 0 1 0;
#X connect 1 0 4 0;
#X connect 1 1 5 0;
#X connect 2 0 3 0;
#X connect 4 0 2 0;
#X connect 5 0 2 1;
#X restore -144 885 pd dbtoa;
#X obj 131 1016 *~;
#X obj 273 1112 -~;
#X listbox 229 114 9 0 0 0 - mgr - 0;
#X obj 436 1176 array sum grl;
#X obj 348 1120 t b b;
#X obj 436 1263 / 24000;
#X obj 534 1176 array sum grr;
#X obj 436 1202 / 2;
#X obj 534 1202 / 2;
#X obj 436 1319 s mgr;
#X obj 436 1239 +;
#X obj 436 1292 expr -$f1;
#X listbox 285 114 9 0 0 0 - maxmgr - 0;
#X obj 335 114 bng 18 250 50 1 empty empty empty 17 7 0 10 #e4e4e4 #4d4d4d #373737;
#X obj 519 1327 max;
#X obj 559 1327 f;
#X obj 519 1292 t f b;
#X obj 519 1394 s maxmgr;
#X obj 559 1292 -1000;
#X obj 355 114 bng 18 250 50 0 empty empty empty 17 7 0 10 #6be324 #000000 #373737;
#X obj 477 -26 f;
#X obj -24 687 process;
#X obj 255 721 process;
#X obj 227 198 vradio 20 1 1 4 lpon empty empty 0 -8 0 10 #e4e4e4 #4d4d4d #373737 3;
#X text 224 175 Envelope;
#X text 352 292 Neputevshina's Normalizer, f 23;
#X text 252 238 IIR Hilbert;
#X text 252 259 FIR Hilbert;
#X text 252 217 Absolute;
#X obj 598 1394 array set top 0;
#X obj 330 950 array set rngr 0;
#X obj 598 1362 expr -$f1;
#X obj 696 1394 array set top 1;
#X obj 346 925 array set rngr 1;
#X obj 227 294 tgl 20 1 empty empty empty 17 7 0 10 #e4e4e4 #4d4d4d #373737 1 1;
#X text 252 292 Sidechain;
#X obj 227 321 + 1;
#X obj -24 418 adc~ 1 2 3 4, f 23;
#X obj 282 488 selector~ 2;
#X obj 374 488 selector~ 2;
#X text 252 196 Square;
#X obj -260 525 moses 3;
#X obj -260 644 0;
#X obj 65 545 delay~ 96000 0;
#X obj 0 488 delay~ 96000 0;
#X obj 153 406 r rls;
#X obj 153 498 mstosamps~;
#X listbox 391 114 9 0 0 0 - maxgr - 0;
#X obj 640 1176 array min grl;
#X obj 736 1176 array min grr;
#X obj 640 1228 min;
#X obj 696 1347 s maxgr;
#X obj 747 1305 f;
#X obj 747 1254 1000;
#X obj 689 1263 t f b;
#X obj 707 1305 min;
#X obj 16 129 hsl 128 17 0 120 0 1 clip empty empty -2 -8 0 10 #e4e4e4 #4d4d4d #373737 0 1;
#X listbox 153 129 8 0 0 0 - clip-out - 12;
#X text 9 143 Clip;
#X obj 213 925 r clip;
#X obj 213 951 dbtoa;
#X obj 747 859 makefilename %ddB;
#X obj 747 793 r clip;
#X obj 747 885 s clip-out;
#X obj 131 986 min~;
#X connect 0 0 13 0;
#X connect 0 0 115 0;
#X connect 1 0 3 0;
#X connect 1 1 3 1;
#X connect 3 0 2 0;
#X connect 3 1 2 1;
#X connect 3 2 21 0;
#X connect 6 0 5 0;
#X connect 7 0 136 0;
#X connect 8 0 6 0;
#X connect 9 0 61 0;
#X connect 10 0 24 0;
#X connect 11 0 12 0;
#X connect 12 0 3 2;
#X connect 12 1 3 3;
#X connect 16 0 73 0;
#X connect 17 0 34 0;
#X connect 17 0 63 2;
#X connect 18 0 35 0;
#X connect 18 0 63 1;
#X connect 20 0 63 0;
#X connect 21 0 20 0;
#X connect 21 0 22 0;
#X connect 22 0 24 1;
#X connect 22 1 25 1;
#X connect 22 1 23 0;
#X connect 23 0 25 0;
#X connect 24 0 1 0;
#X connect 25 0 24 1;
#X connect 27 0 9 2;
#X connect 27 0 65 0;
#X connect 28 0 17 1;
#X connect 28 0 37 0;
#X connect 29 0 18 1;
#X connect 29 0 64 0;
#X connect 30 0 115 1;
#X connect 30 0 116 1;
#X connect 30 0 135 0;
#X connect 37 0 17 0;
#X connect 38 0 98 0;
#X connect 39 0 40 0;
#X connect 40 0 38 0;
#X connect 43 0 47 0;
#X connect 43 1 53 0;
#X connect 44 0 43 4;
#X connect 44 0 47 2;
#X connect 45 0 44 0;
#X connect 46 0 44 0;
#X connect 47 0 48 0;
#X connect 47 1 48 1;
#X connect 48 0 116 0;
#X connect 52 0 59 0;
#X connect 52 0 56 0;
#X connect 53 0 47 1;
#X connect 55 0 54 0;
#X connect 56 0 55 0;
#X connect 59 0 53 1;
#X connect 61 0 10 1;
#X connect 63 0 16 1;
#X connect 64 0 18 0;
#X connect 65 0 66 0;
#X connect 66 0 67 0;
#X connect 68 0 158 0;
#X connect 69 0 16 0;
#X connect 69 0 79 0;
#X connect 73 0 68 1;
#X connect 73 0 79 1;
#X connect 74 0 77 0;
#X connect 74 0 124 0;
#X connect 74 0 127 0;
#X connect 75 0 78 0;
#X connect 77 0 73 1;
#X connect 78 0 76 0;
#X connect 79 0 91 0;
#X connect 80 0 81 0;
#X connect 80 0 82 0;
#X connect 80 0 83 0;
#X connect 80 0 89 0;
#X connect 81 0 15 0;
#X connect 82 0 49 0;
#X connect 83 0 14 0;
#X connect 85 0 94 1;
#X connect 87 0 85 0;
#X connect 89 0 70 0;
#X connect 91 0 95 1;
#X connect 94 0 9 1;
#X connect 95 0 41 0;
#X connect 97 0 101 0;
#X connect 98 0 97 0;
#X connect 98 0 100 0;
#X connect 98 0 142 0;
#X connect 98 0 143 0;
#X connect 98 1 41 0;
#X connect 99 0 105 0;
#X connect 100 0 102 0;
#X connect 101 0 104 0;
#X connect 102 0 104 1;
#X connect 104 0 99 0;
#X connect 105 0 103 0;
#X connect 105 0 110 0;
#X connect 106 0 114 1;
#X connect 107 0 112 0;
#X connect 107 0 147 0;
#X connect 108 0 109 1;
#X connect 108 0 111 0;
#X connect 108 0 125 0;
#X connect 109 0 108 1;
#X connect 110 0 108 0;
#X connect 110 1 109 0;
#X connect 112 0 109 0;
#X connect 113 0 114 0;
#X connect 114 0 84 0;
#X connect 115 0 10 0;
#X connect 115 1 9 0;
#X connect 115 1 68 0;
#X connect 116 1 63 0;
#X connect 125 0 126 0;
#X connect 125 0 123 0;
#X connect 128 0 130 0;
#X connect 130 0 132 0;
#X connect 130 0 133 0;
#X connect 131 0 132 1;
#X connect 131 0 0 0;
#X connect 131 1 133 1;
#X connect 131 1 0 1;
#X connect 131 2 132 2;
#X connect 131 3 133 2;
#X connect 132 0 43 0;
#X connect 133 0 43 1;
#X connect 135 0 7 0;
#X connect 135 1 8 0;
#X connect 136 0 5 0;
#X connect 139 0 140 0;
#X connect 140 0 138 1;
#X connect 140 0 137 1;
#X connect 142 0 144 0;
#X connect 143 0 144 1;
#X connect 144 0 148 0;
#X connect 146 0 149 1;
#X connect 147 0 146 0;
#X connect 148 0 149 0;
#X connect 148 1 146 0;
#X connect 149 0 146 1;
#X connect 149 0 145 0;
#X connect 153 0 154 0;
#X connect 154 0 158 1;
#X connect 155 0 157 0;
#X connect 156 0 155 0;
#X connect 158 0 94 0;
