#N canvas 733 172 450 300 12;
#N canvas 0 50 450 300 biquad 0;
#X obj 44 119 hilbert~, f 13;
#X obj 283 119 hilbert~, f 13;
#X obj 44 33 inlet~;
#X obj 44 59 snake~ out;
#X obj 44 270 snake~ in, f 13;
#X obj 44 296 outlet~;
#X obj 489 33 inlet;
#X obj 489 59 switch~;
#X obj 283 270 snake~ in, f 13;
#X obj 283 296 outlet~;
#X connect 0 0 4 0;
#X connect 0 1 8 0;
#X connect 1 0 4 1;
#X connect 1 1 8 1;
#X connect 2 0 3 0;
#X connect 3 0 0 0;
#X connect 3 1 1 0;
#X connect 4 0 5 0;
#X connect 6 0 7 0;
#X connect 8 0 9 0;
#X restore 57 512 pd biquad;
#N canvas 733 172 450 300 lp 1;
#X obj 41 38 inlet~, f 7;
#X obj 328 38 inlet;
#X obj 41 216 snake~ out;
#X obj 41 297 snake~ in, f 10;
#X msg 156 216 clear;
#X obj 328 64 switch~;
#N canvas 733 172 450 300 fft 0;
#X obj 41 108 *~, f 6;
#X obj 41 219 rfft~, f 19;
#X obj 41 164 /~, f 6;
#X obj 63 79 tabreceive~ window;
#X obj 103 108 r norm;
#X obj 41 296 rifft~, f 18;
#X obj 41 367 *~, f 6;
#X obj 63 339 tabreceive~ window;
#X obj 41 268 -~;
#X obj 41 38 inlet~;
#X obj 41 417 outlet~;
#N canvas 0 0 450 250 (subpatch) 0;
#X array window 512 float 2;
#X coords 0 1 512 -1 200 140 1;
#X restore 476 707 graph;
#X obj 476 614 else/tabgen window;
#X obj 258 878 s norm;
#X obj 284 611 until;
#X obj 284 759 avg;
#X obj 284 685 tabread window;
#X obj 284 648 f;
#X obj 325 648 + 1;
#X obj 258 573 t b f b;
#X obj 258 801 f;
#X msg 214 611 clear;
#X obj 284 722 *;
#X obj 325 611 0;
#X obj 41 502 512;
#X obj 41 466 loadbang, f 10;
#X msg 124 466 bang;
#X msg 476 573 hanning;
#X obj 258 837 expr $f1*512*4;
#X obj 41 535 t f f f f, f 96;
#X msg 694 573 \; window resize \$1;
#X obj 192 466 block~ 512 4;
#X connect 0 0 2 0;
#X connect 1 0 5 1;
#X connect 1 1 8 1;
#X connect 2 0 1 0;
#X connect 3 0 0 1;
#X connect 4 0 2 1;
#X connect 5 0 6 0;
#X connect 6 0 10 0;
#X connect 7 0 6 1;
#X connect 8 0 5 0;
#X connect 9 0 0 0;
#X connect 14 0 17 0;
#X connect 15 0 20 1;
#X connect 16 0 22 0;
#X connect 16 0 22 1;
#X connect 17 0 18 0;
#X connect 17 0 16 0;
#X connect 18 0 17 1;
#X connect 19 0 20 0;
#X connect 19 1 14 0;
#X connect 19 2 21 0;
#X connect 19 2 23 0;
#X connect 20 0 28 0;
#X connect 21 0 15 0;
#X connect 22 0 15 0;
#X connect 23 0 17 1;
#X connect 24 0 29 0;
#X connect 25 0 24 0;
#X connect 26 0 24 0;
#X connect 27 0 12 0;
#X connect 28 0 13 0;
#X connect 29 1 19 0;
#X connect 29 2 27 0;
#X connect 29 3 30 0;
#X restore 150 326 pd fft;
#X obj 41 243 delay~ 448 448;
#X obj 93 271 delay~ 448 448;
#X obj 41 413 outlet~;
#X obj 150 413 outlet~;
#X obj 41 359 /~ 1.14121;
#X obj 150 366 /~ 1.14121;
#X connect 0 0 6 0;
#X connect 0 0 2 0;
#X connect 1 0 4 0;
#X connect 1 0 5 0;
#X connect 2 0 7 0;
#X connect 2 1 8 0;
#X connect 3 0 11 0;
#X connect 4 0 7 0;
#X connect 4 0 8 0;
#X connect 6 0 12 0;
#X connect 7 0 3 0;
#X connect 8 0 3 1;
#X connect 11 0 9 0;
#X connect 12 0 10 0;
#X restore -24 512 pd lp;
#X f 8;
#N canvas 0 50 450 300 norm-mag 0;
#X obj 209 18 inlet~;
#X obj 194 80 *~;
#X obj 152 18 inlet~;
#X obj 152 118 +~;
#X obj 152 153 sqrt~;
#X obj 152 79 *~;
#X obj 21 209 /~;
#X obj 76 209 /~;
#X obj 21 278 outlet~;
#X obj 76 278 outlet~;
#X obj 152 278 outlet~;
#X connect 0 0 1 1;
#X connect 0 0 1 0;
#X connect 0 0 7 0;
#X connect 1 0 3 1;
#X connect 2 0 5 0;
#X connect 2 0 5 1;
#X connect 2 0 6 0;
#X connect 3 0 4 0;
#X connect 4 0 6 1;
#X connect 4 0 7 1;
#X connect 4 0 10 0;
#X connect 5 0 3 0;
#X connect 6 0 8 0;
#X connect 7 0 9 0;
#X restore -24 583 pd norm-mag;
#X f 19;
#X obj -24 622 -~, f 10;
#N canvas 0 50 450 300 1bit 0;
#X obj 11 16 inlet~;
#X obj 11 42 snake~ out;
#X obj 11 253 snake~ in, f 13;
#X obj 11 279 outlet~;
#X obj 456 16 inlet;
#X obj 456 42 switch~;
#X obj 250 253 snake~ in, f 13;
#X obj 250 279 outlet~;
#X obj 49 87 >~ 0;
#X obj 11 172 /~;
#X obj 232 172 /~;
#X obj 49 112 *~ 2;
#X obj 49 138 -~ 1;
#X obj 279 87 >~ 0;
#X obj 279 112 *~ 2;
#X obj 279 138 -~ 1;
#X connect 0 0 1 0;
#X connect 1 0 8 0;
#X connect 1 0 9 0;
#X connect 1 1 10 0;
#X connect 1 1 13 0;
#X connect 2 0 3 0;
#X connect 4 0 5 0;
#X connect 6 0 7 0;
#X connect 8 0 11 0;
#X connect 9 0 6 0;
#X connect 10 0 6 1;
#X connect 11 0 12 0;
#X connect 12 0 2 0;
#X connect 12 0 9 1;
#X connect 13 0 14 0;
#X connect 14 0 15 0;
#X connect 15 0 10 1;
#X connect 15 0 2 1;
#X restore 154 512 pd 1bit;
#X f 8;
#X obj -24 668 +~;
#X obj 85 622 +~;
#X obj -24 426 inlet~;
#X obj 161 362 inlet;
#X obj -24 714 outlet~;
#X obj 85 668 outlet~;
#N canvas 0 50 450 300 sq 0;
#X obj 11 16 inlet~;
#X obj 11 42 snake~ out;
#X obj 11 253 snake~ in, f 13;
#X obj 11 279 outlet~;
#X obj 456 16 inlet;
#X obj 456 42 switch~;
#X obj 250 253 snake~ in, f 13;
#X obj 250 279 outlet~;
#X obj 11 172 /~;
#X obj 232 172 /~;
#X obj 260 86 *~;
#X obj 260 112 lop~ 10000;
#X obj 260 138 sqrt~;
#X obj 41 86 *~;
#X obj 41 112 lop~ 10000;
#X obj 41 138 sqrt~;
#X connect 0 0 1 0;
#X connect 1 0 8 0;
#X connect 1 0 13 0;
#X connect 1 0 13 1;
#X connect 1 1 9 0;
#X connect 1 1 10 0;
#X connect 1 1 10 1;
#X connect 2 0 3 0;
#X connect 4 0 5 0;
#X connect 6 0 7 0;
#X connect 8 0 2 0;
#X connect 9 0 2 1;
#X connect 10 0 11 0;
#X connect 11 0 12 0;
#X connect 12 0 9 1;
#X connect 12 0 6 1;
#X connect 13 0 14 0;
#X connect 14 0 15 0;
#X connect 15 0 8 1;
#X connect 15 0 6 0;
#X restore 232 512 pd sq;
#X f 8;
#X obj 161 396 expr $f1==3 \; $f1==2 \; $f1==1 \; $f1==0;
#X connect 0 0 2 0;
#X connect 0 1 2 1;
#X connect 1 0 2 0;
#X connect 1 1 2 1;
#X connect 2 0 3 0;
#X connect 2 1 3 1;
#X connect 2 2 6 0;
#X connect 3 0 5 0;
#X connect 4 0 5 1;
#X connect 4 1 6 1;
#X connect 5 0 9 0;
#X connect 6 0 10 0;
#X connect 7 0 1 0;
#X connect 7 0 0 0;
#X connect 7 0 4 0;
#X connect 7 0 11 0;
#X connect 8 0 12 0;
#X connect 11 0 5 1;
#X connect 11 1 6 1;
#X connect 12 0 1 1;
#X connect 12 1 0 1;
#X connect 12 2 4 1;
#X connect 12 3 11 1;
