#N canvas 827 239 527 327 12;
#X obj 60 42 inlet~;
#X obj 60 295 outlet~;
#X obj 60 237 min~;
#X obj 298 42 inlet;
#N canvas 0 50 450 300 oversampled 1;
#X obj 44 31 inlet~;
#X obj 44 349 outlet~;
#X obj 44 194 min~;
#X obj 292 31 inlet;
#X obj 219 349 block~ 256 1 4;
#X text 159 273 Smoothstep;
#X obj 44 217 expr~ ($v1+$f2)/(2*$f2);
#X obj 443 31 inlet;
#X obj 44 120 lop~;
#X obj 443 62 / 4;
#X obj 443 94 - 1000;
#X obj 209 208 2cdot x*x*x*(x*(6.0d*x-15.0d)+10.0d)-d;
#X obj 44 156 /~ 1.77856;
#X obj 44 255 expr~ 2*$v1*$v1*$v1*($v1*(6.0*$f2*$v1-15.0*$f2)+10*$f2)-$f2;
#X connect 0 0 8 0;
#X connect 2 0 6 0;
#X connect 3 0 2 1;
#X connect 3 0 6 1;
#X connect 3 0 13 1;
#X connect 6 0 13 0;
#X connect 7 0 9 0;
#X connect 8 0 12 0;
#X connect 9 0 10 0;
#X connect 10 0 8 1;
#X connect 12 0 2 0;
#X connect 13 0 1 0;
#X restore 60 142 pd oversampled;
#X obj 417 86 samplerate~;
#X obj 417 42 loadbang, f 9;
#X connect 0 0 4 0;
#X connect 2 0 1 0;
#X connect 3 0 2 1;
#X connect 3 0 4 1;
#X connect 4 0 2 0;
#X connect 5 0 4 2;
#X connect 6 0 5 0;
