#N canvas 827 239 527 327 12;
#X obj 60 42 inlet~;
#X obj 60 295 outlet~;
#X obj 60 237 min~;
#X obj 298 42 inlet;
#N canvas 0 50 450 300 oversampled 1;
#X obj 44 31 inlet~;
#X obj 44 249 outlet~;
#X obj 44 94 min~;
#X obj 44 155 expr~ 2*$v1*$v1*(3.0*$f2-2.0*$f2*$v1)-$f2;
#X obj 292 31 inlet;
#X obj 219 249 block~ 256 1 4;
#X text 159 173 Smoothstep;
#X obj 44 62 *~ 2;
#X obj 44 117 expr~ ($v1+$f2)/(2*$f2);
#X connect 0 0 7 0;
#X connect 2 0 8 0;
#X connect 3 0 1 0;
#X connect 4 0 3 1;
#X connect 4 0 2 1;
#X connect 4 0 8 1;
#X connect 7 0 2 0;
#X connect 8 0 3 0;
#X restore 60 109 pd oversampled;
#X connect 0 0 4 0;
#X connect 2 0 1 0;
#X connect 3 0 2 1;
#X connect 3 0 4 1;
#X connect 4 0 2 0;
