#N canvas 827 239 527 327 12;
#X obj 60 42 inlet~;
#X obj 60 295 outlet~;
#X obj 60 237 min~;
#X obj 298 42 inlet;
#N canvas 0 50 450 300 oversampled 1;
#X obj 10 41 inlet~;
#X obj 10 409 outlet~;
#X obj 10 254 min~;
#X obj 258 41 inlet;
#X obj 10 10 block~ 256 1 4;
#X obj 10 277 expr~ ($v1+$f2)/(2*$f2);
#X obj 409 41 inlet;
#X obj 10 130 lop~;
#X obj 409 72 / 4;
#X obj 409 104 - 1000;
#X obj 10 226 /~ 1.77856;
#X obj 10 315 expr~ 2*$v1*$v1*$v1*($v1*(6.0*$f2*$v1-15.0*$f2)+10*$f2)-$f2;
#X text 93 225 Exact normalization coefficient is 1.77855;
#X text 158 338 Smootherstep;
#X text 172 276 Remap values to (-$f2 \, $f2) range;
#X obj -101 260 <~;
#X obj -91 130 / 2;
#X obj -101 359 selector~ 2, f 19;
#X obj -101 315 -~;
#X obj -159 260 sig~ 2;
#X connect 0 0 7 0;
#X connect 2 0 5 0;
#X connect 3 0 2 1;
#X connect 3 0 5 1;
#X connect 3 0 11 1;
#X connect 3 0 16 0;
#X connect 5 0 11 0;
#X connect 6 0 8 0;
#X connect 7 0 10 0;
#X connect 7 0 15 0;
#X connect 7 0 17 1;
#X connect 8 0 9 0;
#X connect 9 0 7 1;
#X connect 10 0 2 0;
#X connect 11 0 17 2;
#X connect 15 0 18 1;
#X connect 16 0 15 1;
#X connect 17 0 1 0;
#X connect 18 0 17 0;
#X connect 19 0 18 0;
#X restore 60 142 pd oversampled;
#X obj 417 86 samplerate~;
#X obj 417 42 loadbang, f 9;
#X connect 0 0 4 0;
#X connect 2 0 1 0;
#X connect 3 0 2 1;
#X connect 3 0 4 1;
#X connect 4 0 2 0;
#X connect 5 0 4 2;
#X connect 6 0 5 0;
