#N canvas 827 239 527 327 12;
#X obj 247 95 abs~;
#X obj 247 166 mov.avg~ 4 4;
#X obj 247 193 >~ 1e-06;
#X obj 363 166 mov.avg~ 4 4;
#X obj 363 193 >~ 1e-06;
#X obj 247 24 inlet~;
#X obj 363 24 inlet~;
#X obj 35 24 inlet~;
#X obj 100 24 inlet~;
#X obj 363 95 abs~;
#X obj 35 311 *~;
#X obj 100 311 *~;
#X obj 35 337 outlet~;
#X obj 100 337 outlet~;
#X connect 0 0 1 0;
#X connect 1 0 2 0;
#X connect 2 0 10 1;
#X connect 3 0 4 0;
#X connect 4 0 11 1;
#X connect 5 0 0 0;
#X connect 6 0 9 0;
#X connect 7 0 10 0;
#X connect 8 0 11 0;
#X connect 9 0 3 0;
#X connect 10 0 12 0;
#X connect 11 0 13 0;
