#N canvas 827 239 527 327 12;
#X obj 9 181 cnv 15 151 139 empty empty empty 20 12 0 14 #a5ebff #373737 0;
#X obj 353 5 cnv 15 168 197 empty empty empty 20 12 0 14 #efefef #373737 0;
#X obj -97 451 loadbang;
#X obj -97 541 plugin_latency;
#X obj -97 481 1024;
#X obj 20 37 hsl 128 17 -1 1 0 1 p ip empty -2 -8 0 10 #e4c417 #4d4d4d #373737 0 1;
#X obj 20 82 hsl 128 17 -1 1 0 1 a ia empty -2 -8 0 10 #e4c417 #4d4d4d #373737 0 1;
#X obj 17 110 tgl 25 1 mr empty empty 17 7 0 10 #e4e4e4 #4d4d4d #373737 1 1;
#X text 46 112 Multiresolution;
#X obj 17 143 tgl 25 1 ms empty empty 17 7 0 10 #e4e4e4 #4d4d4d #373737 1 1;
#X text 46 145 Mid-side;
#X obj 362 17 tgl 25 1 empty empty empty 17 7 0 10 #e4e4e4 #4d4d4d #373737 0 1;
#X text 392 11 Steal pitch;
#X text 391 27 (side->front only);
#X obj 366 61 hsl 128 17 0 200 0 1 empty empty empty -2 -8 0 10 #e4e4e4 #4d4d4d #373737 0 1;
#X text 359 75 Retune time;
#X obj 366 101 hsl 128 17 40 70 0 1 empty empty empty -2 -8 0 10 #e4e4e4 #4d4d4d #373737 0 1;
#X text 359 115 Retune threshold;
#X text 359 169 Octave;
#X obj -97 511 - 64;
#X obj 20 60 hsl 128 17 -1 1 0 1 empty empty empty -2 -8 0 10 #e4e4e4 #4d4d4d #373737 0 1;
#X text 61 35 A -> B;
#X text 61 80 B -> A;
#X obj 422 280 cnv 15 100 17 empty empty empty 20 12 0 14 #e4c417 #373737 0;
#X text 432 278 Automatable;
#X obj 71 8 bng 25 250 50 0 empty empty empty 17 7 0 10 #e4e4e4 #4d4d4d #373737;
#X obj 28 -2 0;
#X obj 20 191 hsl 128 17 -1 1 0 1 dc idc empty -2 -8 0 10 #e4c41e #4d4d4d #373737 0 1;
#X obj 20 256 hsl 128 17 -1 1 0 1 pn ipn empty -2 -8 0 10 #e4c41e #4d4d4d #373737 0 1;
#X obj 363 143 nbx 6 29 -6 6 0 1 empty empty empty 0 -8 0 10 #e4e4e4 #373737 #373737 0 256;
#X obj 175 191 hsl 128 17 0 1 0 1 dirt idirt empty -2 -8 0 10 #e4c41e #4d4d4d #373737 0 1;
#X text 14 205 Time blur;
#X text 169 205 Dirt (side->front only);
#X obj 18 228 tgl 17 1 freeze ifreeze empty 17 7 0 10 #e4c41e #4d4d4d #373737 0 1;
#X text 59 226 Freeze;
#X obj 39 228 bng 17 250 50 0 fradv empty empty 17 7 0 10 #e4e4e4 #4d4d4d #373737;
#X obj -392 458 t b b;
#X obj -392 514 1;
#X obj -351 514 0;
#X obj -392 486 del 1 1024 samples;
#X obj 107 8 tgl 25 1 empty empty empty 17 7 0 10 #e4e4e4 #4d4d4d #373737 0 1;
#X text 136 10 B = A;
#X text 14 270 Phase noise;
#X text 344 300 Neputevshina's morphing tool;
#X obj -83 110 orbit;
#X obj 20 294 hsl 128 17 -1 1 0 1 empty empty empty -2 -8 0 10 #e4e4e4 #4d4d4d #373737 0 1;
#X obj -585 8 r p;
#X obj -585 60 s ip;
#X obj -585 93 r a;
#X obj -585 145 s ia;
#X obj -585 181 r dc;
#X obj -585 233 s idc;
#X obj -585 267 r pn;
#X obj -585 318 s ipn;
#X obj -585 350 r dirt;
#X obj -585 402 s idirt;
#X obj -83 350 orbit;
#X obj -83 293 r dc;
#X obj -54 325 r pn;
#X obj -83 376 s idc;
#X obj -54 402 s ipn;
#X obj -83 60 r a;
#X obj -54 83 r p;
#X obj -83 136 s ia;
#X obj -54 161 s ip;
#X obj -585 432 r freeze;
#X obj -585 659 s ifreeze;
#X obj -392 659 s ifreeze;
#X obj -392 431 r fradv;
#X obj -351 605 s freeze;
#X msg -392 631 set \$1;
#X obj -585 33 defparam AToB float -1 1;
#X obj -585 119 defparam BToA float -1 1;
#X obj -585 207 defparam TimeBlur float -1 1;
#X obj -585 292 defparam PhaseNoise float -1 1;
#X obj -585 376 defparam Dirt float 0 1;
#X obj -392 540 t f f;
#X obj -585 458 defparam Freeze float 0 2;
#X obj -585 631 spigot;
#N canvas 733 172 450 300 (subpatch) 0;
#X obj 8 584 snake~ in, f 11;
#X obj 280 532 snake~ in, f 11;
#X obj 242 1102 snake~ out;
#X obj 8 800 +~;
#X obj 46 800 +~;
#X obj 242 1004 delay~ 512 512;
#X obj 242 978 snake~ out;
#X obj 349 1004 delay~ 512 512;
#X obj 242 1030 snake~ in;
#X obj 479 978 snake~ out;
#X obj 479 1030 snake~ in;
#X obj 479 1004 delay~ 768 768;
#X obj 595 1004 delay~ 768 768;
#X obj 381 800 r mr;
#X obj 756 1004 delay~ 512 512;
#X obj 756 978 snake~ out;
#X obj 863 1004 delay~ 512 512;
#X obj 756 1030 snake~ in;
#X obj 790 706 r a, f 4;
#X obj 807 729 r p, f 4;
#X obj 825 752 r mr;
#X obj 825 777 expr 1-$f1;
#N canvas 0 50 450 300 mtos 0;
#X obj 51 43 inlet~;
#X obj 220 43 inlet~;
#X obj 51 459 outlet~;
#X obj 51 109 +~;
#X obj 209 109 -~;
#X obj 392 43 inlet~;
#X obj 561 43 inlet~;
#X obj 392 109 +~;
#X obj 550 109 -~;
#X obj 684 43 inlet;
#X obj 51 249 *~, f 6;
#X obj 106 249 *~, f 6;
#X obj 684 79 expr 1-$f1;
#X obj 51 339 +~;
#X obj 209 459 outlet~;
#X obj 209 249 *~, f 6;
#X obj 264 249 *~, f 6;
#X obj 209 339 +~;
#X obj 392 459 outlet~;
#X obj 392 249 *~, f 6;
#X obj 447 249 *~, f 6;
#X obj 392 339 +~;
#X obj 550 459 outlet~;
#X obj 550 249 *~, f 6;
#X obj 605 249 *~, f 6;
#X obj 550 339 +~;
#X connect 0 0 3 0;
#X connect 0 0 4 0;
#X connect 0 0 11 0;
#X connect 1 0 4 1;
#X connect 1 0 3 1;
#X connect 1 0 16 0;
#X connect 3 0 10 0;
#X connect 4 0 15 0;
#X connect 5 0 7 0;
#X connect 5 0 8 0;
#X connect 5 0 20 0;
#X connect 6 0 8 1;
#X connect 6 0 7 1;
#X connect 6 0 24 0;
#X connect 7 0 19 0;
#X connect 8 0 23 0;
#X connect 9 0 10 1;
#X connect 9 0 15 1;
#X connect 9 0 19 1;
#X connect 9 0 12 0;
#X connect 9 0 23 1;
#X connect 10 0 13 0;
#X connect 11 0 13 0;
#X connect 12 0 11 1;
#X connect 12 0 16 1;
#X connect 12 0 24 1;
#X connect 12 0 20 1;
#X connect 13 0 2 0;
#X connect 15 0 17 0;
#X connect 16 0 17 0;
#X connect 17 0 14 0;
#X connect 19 0 21 0;
#X connect 20 0 21 0;
#X connect 21 0 18 0;
#X connect 23 0 25 0;
#X connect 24 0 25 0;
#X connect 25 0 22 0;
#X restore 8 432 pd mtos;
#X f 37;
#N canvas 0 50 450 300 stom 0;
#X obj 51 43 inlet~;
#X obj 220 43 inlet~;
#X obj 51 459 outlet~;
#X obj 51 109 +~;
#X obj 209 109 -~;
#X obj 684 43 inlet;
#X obj 51 249 *~, f 6;
#X obj 106 249 *~, f 6;
#X obj 684 79 expr 1-$f1;
#X obj 51 339 +~;
#X obj 209 459 outlet~;
#X obj 209 249 *~, f 6;
#X obj 264 249 *~, f 6;
#X obj 209 339 +~;
#X obj 209 279 /~ 2;
#X obj 51 279 /~ 2;
#X connect 0 0 3 0;
#X connect 0 0 4 0;
#X connect 0 0 7 0;
#X connect 1 0 4 1;
#X connect 1 0 3 1;
#X connect 1 0 12 0;
#X connect 3 0 6 0;
#X connect 4 0 11 0;
#X connect 5 0 6 1;
#X connect 5 0 11 1;
#X connect 5 0 8 0;
#X connect 6 0 15 0;
#X connect 7 0 9 0;
#X connect 8 0 7 1;
#X connect 8 0 12 1;
#X connect 9 0 2 0;
#X connect 11 0 14 0;
#X connect 12 0 13 0;
#X connect 13 0 10 0;
#X connect 14 0 13 0;
#X connect 15 0 9 0;
#X restore 242 1158 pd stom;
#X f 17;
#X obj 8 927 morphingtool-xsynth 1024 0 16, f 20;
#X obj 242 927 morphingtool-xsynth 512 8 32, f 20;
#X obj 479 927 morphingtool-xsynth 256 16 128, f 19;
#X obj 756 927 morphingtool-xsynth 512 0 256, f 19;
#X obj 8 485 morphingtool-pitchsteal;
#X obj 436 800 r dc;
#X obj 841 800 r dc;
#X obj 538 800 r pn;
#X obj 858 823 r pn;
#X obj 182 688 r dirt, f 7;
#X obj 8 712 morphingtool-bimonox, f 34;
#X obj 603 800 r freeze;
#X obj 875 845 r freeze;
#N canvas 0 50 450 300 selfmorph 0;
#X obj 35 15 inlet~;
#X obj 108 15 inlet~;
#X obj 200 15 inlet~;
#X obj 273 15 inlet~;
#X obj 35 253 outlet~;
#X obj 108 253 outlet~;
#X obj 200 247 outlet~;
#X obj 273 247 outlet~;
#X obj 404 12 inlet;
#X obj 200 133 switchedinlet;
#X obj 304 133 switchedinlet;
#X connect 0 0 4 0;
#X connect 0 0 9 1;
#X connect 1 0 5 0;
#X connect 1 0 10 1;
#X connect 2 0 9 0;
#X connect 3 0 10 0;
#X connect 8 0 10 2;
#X connect 8 0 9 2;
#X connect 9 0 6 0;
#X connect 10 0 7 0;
#X restore 8 382 pd selfmorph;
#X f 37;
#X obj 273 800 r p, f 4;
#X obj 313 800 r a, f 4;
#X obj 95 688 r p, f 4;
#X obj 138 688 r a, f 4;
#X obj 292 382 r ms;
#X obj 339 1102 r ms;
#X obj 369 23 inlet;
#X obj 341 132 inlet;
#X obj 8 230 inlet~;
#X obj 8 256 snake~ out 4, f 29;
#X obj 242 1219 snake~ in;
#X obj 242 1245 outlet~;
#X obj 8 532 life-detector, f 36;
#X obj 179 23 inlet;
#X obj 179 49 switch~;
#X connect 0 0 34 0;
#X connect 1 0 34 1;
#X connect 2 0 23 0;
#X connect 2 1 23 1;
#X connect 3 0 24 0;
#X connect 3 0 26 0;
#X connect 3 0 25 0;
#X connect 3 0 27 0;
#X connect 4 0 24 1;
#X connect 4 0 26 1;
#X connect 4 0 25 1;
#X connect 4 0 27 1;
#X connect 5 0 8 0;
#X connect 6 0 5 0;
#X connect 6 1 7 0;
#X connect 7 0 8 1;
#X connect 8 0 2 0;
#X connect 9 0 11 0;
#X connect 9 1 12 0;
#X connect 10 0 2 0;
#X connect 11 0 10 0;
#X connect 12 0 10 1;
#X connect 13 0 24 4;
#X connect 13 0 26 4;
#X connect 13 0 25 4;
#X connect 14 0 17 0;
#X connect 15 0 14 0;
#X connect 15 1 16 0;
#X connect 16 0 17 1;
#X connect 17 0 2 0;
#X connect 18 0 27 2;
#X connect 19 0 27 3;
#X connect 20 0 21 0;
#X connect 21 0 27 4;
#X connect 22 0 28 0;
#X connect 22 1 28 1;
#X connect 22 2 1 0;
#X connect 22 2 28 2;
#X connect 22 2 50 2;
#X connect 22 3 1 1;
#X connect 22 3 50 3;
#X connect 23 0 48 0;
#X connect 23 1 48 1;
#X connect 24 0 2 0;
#X connect 25 0 6 0;
#X connect 26 0 9 0;
#X connect 27 0 15 0;
#X connect 28 0 50 0;
#X connect 28 1 50 1;
#X connect 29 0 24 5;
#X connect 29 0 26 5;
#X connect 29 0 25 5;
#X connect 30 0 27 5;
#X connect 31 0 24 6;
#X connect 31 0 26 6;
#X connect 31 0 25 6;
#X connect 32 0 27 6;
#X connect 33 0 34 4;
#X connect 34 0 3 0;
#X connect 34 1 4 0;
#X connect 35 0 6 0;
#X connect 35 0 24 7;
#X connect 35 0 26 7;
#X connect 35 0 25 7;
#X connect 36 0 27 7;
#X connect 37 0 22 0;
#X connect 37 1 22 1;
#X connect 37 2 22 2;
#X connect 37 3 22 3;
#X connect 38 0 24 2;
#X connect 38 0 26 2;
#X connect 38 0 25 2;
#X connect 39 0 24 3;
#X connect 39 0 26 3;
#X connect 39 0 25 3;
#X connect 40 0 34 2;
#X connect 41 0 34 3;
#X connect 42 0 22 4;
#X connect 43 0 23 2;
#X connect 44 0 28 3;
#X connect 45 0 37 4;
#X connect 46 0 47 0;
#X connect 47 0 37 0;
#X connect 47 1 37 1;
#X connect 47 2 37 2;
#X connect 47 3 37 3;
#X connect 48 0 49 0;
#X connect 50 0 0 0;
#X connect 50 1 0 1;
#X connect 51 0 52 0;
#X restore 26 481 pd;
#X f 17;
#X obj 26 350 adc~ 1 2 3 4, f 13;
#X obj 26 384 snake~ in 4, f 13;
#X obj 26 541 dac~, f 10;
#X obj 26 507 snake~ out;
#X obj 151 437 pack f f f f;
#N canvas 733 172 450 300 savecpu 0;
#X obj 26 148 max~, f 11;
#X obj 26 283 snapshot~;
#X obj 26 309 > 1e-06;
#X obj 26 174 mov.avg~ 4;
#X obj 26 122 abs~;
#X obj 80 122 abs~;
#X obj 144 148 max~, f 11;
#X obj 144 174 mov.avg~ 4;
#X obj 144 122 abs~;
#X obj 198 122 abs~;
#X obj 26 220 min~;
#X obj 26 28 inlet~;
#X obj 26 335 outlet;
#X obj 26 54 snake~ out 4, f 14;
#X obj 80 245 bang~;
#X connect 0 0 3 0;
#X connect 1 0 2 0;
#X connect 2 0 12 0;
#X connect 3 0 10 0;
#X connect 4 0 0 0;
#X connect 5 0 0 1;
#X connect 6 0 7 0;
#X connect 7 0 10 1;
#X connect 8 0 6 0;
#X connect 9 0 6 1;
#X connect 10 0 1 0;
#X connect 11 0 13 0;
#X connect 13 0 4 0;
#X connect 13 1 5 0;
#X connect 13 2 8 0;
#X connect 13 3 9 0;
#X connect 14 0 1 0;
#X restore 59 437 pd savecpu;
#X connect 2 0 4 0;
#X connect 4 0 19 0;
#X connect 11 0 84 0;
#X connect 14 0 84 1;
#X connect 16 0 84 2;
#X connect 19 0 3 0;
#X connect 20 0 44 1;
#X connect 25 0 26 0;
#X connect 26 0 20 0;
#X connect 29 0 84 3;
#X connect 36 0 39 0;
#X connect 36 1 38 0;
#X connect 37 0 76 0;
#X connect 37 0 78 1;
#X connect 38 0 69 0;
#X connect 38 0 78 1;
#X connect 39 0 37 0;
#X connect 40 0 79 2;
#X connect 44 0 63 0;
#X connect 44 1 64 0;
#X connect 45 0 56 1;
#X connect 46 0 71 0;
#X connect 48 0 72 0;
#X connect 50 0 73 0;
#X connect 52 0 74 0;
#X connect 54 0 75 0;
#X connect 56 0 59 0;
#X connect 56 1 60 0;
#X connect 57 0 56 0;
#X connect 58 0 56 2;
#X connect 61 0 44 0;
#X connect 62 0 44 2;
#X connect 65 0 77 0;
#X connect 68 0 36 0;
#X connect 70 0 67 0;
#X connect 71 0 47 0;
#X connect 72 0 49 0;
#X connect 73 0 51 0;
#X connect 74 0 53 0;
#X connect 75 0 55 0;
#X connect 76 0 70 0;
#X connect 76 1 69 0;
#X connect 77 0 78 0;
#X connect 78 0 66 0;
#X connect 79 0 83 0;
#X connect 80 0 81 0;
#X connect 80 1 81 1;
#X connect 80 2 81 2;
#X connect 80 3 81 3;
#X connect 81 0 79 0;
#X connect 81 0 85 0;
#X connect 83 0 82 0;
#X connect 83 1 82 1;
#X connect 84 0 79 3;
#X connect 85 0 79 1;
