#N canvas 827 239 527 327 12;
#X obj 8 190 snake~ in;
#X obj 8 286 snake~ out;
#X obj 8 386 dac~;
#X obj 8 138 adc~ 1 2, f 9;
#N canvas 0 50 450 300 life-detector 0;
#X obj 299 130 abs~;
#X obj 299 201 mov.avg~ 4 4;
#X obj 299 228 >~ 1e-06;
#X obj 415 201 mov.avg~ 4 4;
#X obj 415 228 >~ 1e-06;
#X obj 299 59 inlet~;
#X obj 415 59 inlet~;
#X obj 87 59 inlet~;
#X obj 152 59 inlet~;
#X obj 415 130 abs~;
#X obj 87 322 *~;
#X obj 152 322 *~;
#X obj 87 372 outlet~;
#X obj 152 372 outlet~;
#X connect 0 0 1 0;
#X connect 1 0 2 0;
#X connect 2 0 10 1;
#X connect 3 0 4 0;
#X connect 4 0 11 1;
#X connect 5 0 0 0;
#X connect 6 0 9 0;
#X connect 7 0 10 0;
#X connect 8 0 11 0;
#X connect 9 0 3 0;
#X connect 10 0 12 0;
#X connect 11 0 13 0;
#X restore 8 327 pd life-detector;
#X f 33;
#X obj 45 52 hsl 128 17 -1 1 0 1 empty empty empty -2 -8 0 10 #e4e4e4 #4d4d4d #373737 12700 1;
#N canvas 0 50 450 300 biquad 0;
#X obj 44 119 hilbert~, f 13;
#N canvas 0 50 450 300 norm-mag 0;
#X obj 252 83 inlet~;
#X obj 237 145 *~;
#X obj 195 83 inlet~;
#X obj 195 183 +~;
#X obj 195 218 sqrt~;
#X obj 195 344 outlet~;
#X obj 195 144 *~;
#X obj 64 274 /~;
#X obj 119 274 /~;
#X obj 64 343 outlet~;
#X obj 119 343 outlet~;
#X connect 0 0 1 1;
#X connect 0 0 1 0;
#X connect 0 0 8 0;
#X connect 1 0 3 1;
#X connect 2 0 6 0;
#X connect 2 0 6 1;
#X connect 2 0 7 0;
#X connect 3 0 4 0;
#X connect 4 0 5 0;
#X connect 4 0 7 1;
#X connect 4 0 8 1;
#X connect 6 0 3 0;
#X connect 7 0 9 0;
#X connect 8 0 10 0;
#X restore 44 145 pd norm-mag;
#X obj 44 171 complex-mod~;
#X obj 283 119 hilbert~, f 13;
#N canvas 0 50 450 300 norm-mag 0;
#X obj 252 83 inlet~;
#X obj 237 145 *~;
#X obj 195 83 inlet~;
#X obj 195 183 +~;
#X obj 195 218 sqrt~;
#X obj 195 344 outlet~;
#X obj 195 144 *~;
#X obj 64 274 /~;
#X obj 119 274 /~;
#X obj 64 343 outlet~;
#X obj 119 343 outlet~;
#X connect 0 0 1 1;
#X connect 0 0 1 0;
#X connect 0 0 8 0;
#X connect 1 0 3 1;
#X connect 2 0 6 0;
#X connect 2 0 6 1;
#X connect 2 0 7 0;
#X connect 3 0 4 0;
#X connect 4 0 5 0;
#X connect 4 0 7 1;
#X connect 4 0 8 1;
#X connect 6 0 3 0;
#X connect 7 0 9 0;
#X connect 8 0 10 0;
#X restore 283 145 pd norm-mag;
#X obj 283 171 complex-mod~;
#X obj 44 252 *~;
#X obj 283 252 *~;
#X obj 182 179 sig~ 1;
#X obj 63 225 xfade~ -lin;
#X obj 302 225 xfade~ -lin;
#X obj 44 33 inlet~;
#X obj 44 59 snake~ out;
#X obj 409 33 inlet;
#X obj 44 278 snake~ in, f 37;
#X obj 44 304 outlet~;
#X obj 489 33 inlet;
#X obj 489 59 switch~;
#X connect 0 0 1 0;
#X connect 0 1 1 1;
#X connect 1 0 2 0;
#X connect 1 1 2 1;
#X connect 1 2 9 0;
#X connect 2 0 6 0;
#X connect 3 0 4 0;
#X connect 3 1 4 1;
#X connect 4 0 5 0;
#X connect 4 1 5 1;
#X connect 4 2 10 0;
#X connect 5 0 7 0;
#X connect 6 0 14 0;
#X connect 7 0 14 1;
#X connect 8 0 9 1;
#X connect 8 0 10 1;
#X connect 9 0 6 1;
#X connect 10 0 7 1;
#X connect 11 0 12 0;
#X connect 12 0 0 0;
#X connect 12 1 3 0;
#X connect 13 0 10 2;
#X connect 13 0 9 2;
#X connect 14 0 15 0;
#X connect 16 0 17 0;
#X restore 211 236 pd biquad;
#X obj 211 52 tgl 25 1 empty empty empty 17 7 0 10 #e4e4e4 #4d4d4d #373737 1 1;
#X obj 218 129 expr $f1 \; 1-$f1, f 9;
#X text 211 28 Linear phase;
#X text 42 28 Crush;
#N canvas 733 172 450 300 lp 1;
#X obj 41 568 outlet~;
#X obj 41 38 inlet~, f 7;
#X obj 222 38 inlet;
#X obj 150 456 xfade.mc~ -lin;
#X obj 328 38 inlet;
#N canvas 0 50 450 300 norm-mag 0;
#X obj 209 18 inlet~;
#X obj 194 80 *~;
#X obj 152 18 inlet~;
#X obj 152 118 +~;
#X obj 152 153 sqrt~;
#X obj 152 79 *~;
#X obj 21 209 /~;
#X obj 76 209 /~;
#X obj 21 278 outlet~;
#X obj 76 278 outlet~;
#X obj 152 278 outlet~;
#X connect 0 0 1 1;
#X connect 0 0 1 0;
#X connect 0 0 7 0;
#X connect 1 0 3 1;
#X connect 2 0 5 0;
#X connect 2 0 5 1;
#X connect 2 0 6 0;
#X connect 3 0 4 0;
#X connect 4 0 6 1;
#X connect 4 0 7 1;
#X connect 4 0 10 0;
#X connect 5 0 3 0;
#X connect 6 0 8 0;
#X connect 7 0 9 0;
#X restore 41 417 pd norm-mag;
#X f 19;
#X obj 41 512 *~;
#X obj 41 456 -~, f 10;
#X obj 41 216 snake~ out;
#X obj 41 297 snake~ in, f 10;
#X msg 167 161 clear;
#X obj 328 64 switch~;
#N canvas 733 172 450 300 fft 0;
#X obj 41 108 *~, f 6;
#X obj 41 219 rfft~, f 19;
#X obj 41 164 /~, f 6;
#X obj 63 79 tabreceive~ window;
#X obj 103 108 r norm;
#X obj 41 296 rifft~, f 18;
#X obj 41 367 *~, f 6;
#X obj 63 339 tabreceive~ window;
#X obj 41 268 -~;
#X obj 41 38 inlet~;
#X obj 41 417 outlet~;
#N canvas 0 0 450 250 (subpatch) 0;
#X array window 512 float 2;
#X coords 0 1 512 -1 200 140 1;
#X restore 476 707 graph;
#X obj 476 614 else/tabgen window;
#X obj 258 878 s norm;
#X obj 41 609 plugin_latency;
#X obj 284 611 until;
#X obj 284 759 avg;
#X obj 284 685 tabread window;
#X obj 284 648 f;
#X obj 325 648 + 1;
#X obj 258 573 t b f b;
#X obj 258 801 f;
#X msg 214 611 clear;
#X obj 284 722 *;
#X obj 325 611 0;
#X obj 41 502 512;
#X obj 41 466 loadbang, f 10;
#X msg 124 466 bang;
#X obj 41 573 - 64;
#X msg 476 573 hanning;
#X obj 258 837 expr $f1*512*4;
#X obj 41 535 t f f f f, f 96;
#X msg 694 573 \; window resize \$1;
#X obj 192 466 block~ 512 4;
#X connect 0 0 2 0;
#X connect 1 0 5 1;
#X connect 1 1 8 1;
#X connect 2 0 1 0;
#X connect 3 0 0 1;
#X connect 4 0 2 1;
#X connect 5 0 6 0;
#X connect 6 0 10 0;
#X connect 7 0 6 1;
#X connect 8 0 5 0;
#X connect 9 0 0 0;
#X connect 15 0 18 0;
#X connect 16 0 21 1;
#X connect 17 0 23 0;
#X connect 17 0 23 1;
#X connect 18 0 19 0;
#X connect 18 0 17 0;
#X connect 19 0 18 1;
#X connect 20 0 21 0;
#X connect 20 1 15 0;
#X connect 20 2 22 0;
#X connect 20 2 24 0;
#X connect 21 0 30 0;
#X connect 22 0 16 0;
#X connect 23 0 16 0;
#X connect 24 0 18 1;
#X connect 25 0 31 0;
#X connect 26 0 25 0;
#X connect 27 0 25 0;
#X connect 28 0 14 0;
#X connect 29 0 12 0;
#X connect 30 0 13 0;
#X connect 31 0 28 0;
#X connect 31 1 20 0;
#X connect 31 2 29 0;
#X connect 31 3 32 0;
#X restore 150 366 pd fft;
#X obj 41 243 delay~ 448 448;
#X obj 93 271 delay~ 448 448;
#X obj 186 424 sigs~ 0.75 0.75;
#X connect 1 0 12 0;
#X connect 1 0 8 0;
#X connect 2 0 3 2;
#X connect 3 0 6 1;
#X connect 4 0 10 0;
#X connect 4 0 11 0;
#X connect 5 0 7 0;
#X connect 5 1 7 1;
#X connect 5 2 3 0;
#X connect 6 0 0 0;
#X connect 7 0 6 0;
#X connect 8 0 13 0;
#X connect 8 1 14 0;
#X connect 9 0 5 0;
#X connect 10 0 13 0;
#X connect 10 0 14 1;
#X connect 12 0 5 1;
#X connect 13 0 9 0;
#X connect 14 0 9 1;
#X connect 15 0 3 1;
#X restore 8 236 pd lp;
#X f 22;
#X connect 0 0 11 0;
#X connect 0 0 6 0;
#X connect 1 0 4 0;
#X connect 1 1 4 1;
#X connect 3 0 0 0;
#X connect 3 0 4 2;
#X connect 3 1 0 1;
#X connect 3 1 4 3;
#X connect 4 0 2 0;
#X connect 4 1 2 1;
#X connect 5 0 11 1;
#X connect 5 0 6 1;
#X connect 6 0 1 0;
#X connect 7 0 8 0;
#X connect 8 0 11 2;
#X connect 8 1 6 2;
#X connect 11 0 1 0;
