#N canvas 827 239 527 327 12;
#X obj 8 190 snake~ in;
#X obj 8 777 snake~ out;
#X obj 8 877 dac~;
#X obj 8 138 adc~ 1 2, f 9;
#N canvas 0 50 450 300 life-detector 0;
#X obj 299 130 abs~;
#X obj 299 201 mov.avg~ 4 4;
#X obj 299 228 >~ 1e-06;
#X obj 415 201 mov.avg~ 4 4;
#X obj 415 228 >~ 1e-06;
#X obj 299 59 inlet~;
#X obj 415 59 inlet~;
#X obj 87 59 inlet~;
#X obj 152 59 inlet~;
#X obj 415 130 abs~;
#X obj 87 322 *~;
#X obj 152 322 *~;
#X obj 87 372 outlet~;
#X obj 152 372 outlet~;
#X connect 0 0 1 0;
#X connect 1 0 2 0;
#X connect 2 0 10 1;
#X connect 3 0 4 0;
#X connect 4 0 11 1;
#X connect 5 0 0 0;
#X connect 6 0 9 0;
#X connect 7 0 10 0;
#X connect 8 0 11 0;
#X connect 9 0 3 0;
#X connect 10 0 12 0;
#X connect 11 0 13 0;
#X restore 8 818 pd life-detector;
#X f 33;
#X obj 51 52 hsl 128 17 -1 1 0 1 empty empty empty -2 -8 0 10 #e4e4e4 #4d4d4d #373737 3601 1;
#N canvas 0 50 450 300 biquad 0;
#X obj 44 119 hilbert~, f 13;
#X obj 283 119 hilbert~, f 13;
#X obj 44 33 inlet~;
#X obj 44 59 snake~ out;
#X obj 44 270 snake~ in, f 13;
#X obj 44 296 outlet~;
#X obj 489 33 inlet;
#X obj 489 59 switch~;
#X obj 283 270 snake~ in, f 13;
#X obj 283 296 outlet~;
#X connect 0 0 4 0;
#X connect 0 1 8 0;
#X connect 1 0 4 1;
#X connect 1 1 8 1;
#X connect 2 0 3 0;
#X connect 3 0 0 0;
#X connect 3 1 1 0;
#X connect 4 0 5 0;
#X connect 6 0 7 0;
#X connect 8 0 9 0;
#X restore 211 236 pd biquad;
#X obj 211 52 tgl 25 1 empty empty empty 17 7 0 10 #e4e4e4 #4d4d4d #373737 1 1;
#X obj 218 129 expr $f1 \; 1-$f1;
#X text 211 26 Linear phase;
#N canvas 733 172 450 300 lp 0;
#X obj 41 38 inlet~, f 7;
#X obj 328 38 inlet;
#X obj 41 216 snake~ out;
#X obj 41 297 snake~ in, f 10;
#X msg 156 216 clear;
#X obj 328 64 switch~;
#N canvas 733 172 450 300 fft 0;
#X obj 41 108 *~, f 6;
#X obj 41 219 rfft~, f 19;
#X obj 41 164 /~, f 6;
#X obj 63 79 tabreceive~ window;
#X obj 103 108 r norm;
#X obj 41 296 rifft~, f 18;
#X obj 41 367 *~, f 6;
#X obj 63 339 tabreceive~ window;
#X obj 41 268 -~;
#X obj 41 38 inlet~;
#X obj 41 417 outlet~;
#N canvas 0 0 450 250 (subpatch) 0;
#X array window 512 float 2;
#X coords 0 1 512 -1 200 140 1;
#X restore 476 707 graph;
#X obj 476 614 else/tabgen window;
#X obj 258 878 s norm;
#X obj 284 611 until;
#X obj 284 759 avg;
#X obj 284 685 tabread window;
#X obj 284 648 f;
#X obj 325 648 + 1;
#X obj 258 573 t b f b;
#X obj 258 801 f;
#X msg 214 611 clear;
#X obj 284 722 *;
#X obj 325 611 0;
#X obj 41 502 512;
#X obj 41 466 loadbang, f 10;
#X msg 124 466 bang;
#X msg 476 573 hanning;
#X obj 258 837 expr $f1*512*4;
#X obj 41 535 t f f f f, f 96;
#X msg 694 573 \; window resize \$1;
#X obj 192 466 block~ 512 4;
#X connect 0 0 2 0;
#X connect 1 0 5 1;
#X connect 1 1 8 1;
#X connect 2 0 1 0;
#X connect 3 0 0 1;
#X connect 4 0 2 1;
#X connect 5 0 6 0;
#X connect 6 0 10 0;
#X connect 7 0 6 1;
#X connect 8 0 5 0;
#X connect 9 0 0 0;
#X connect 14 0 17 0;
#X connect 15 0 20 1;
#X connect 16 0 22 0;
#X connect 16 0 22 1;
#X connect 17 0 18 0;
#X connect 17 0 16 0;
#X connect 18 0 17 1;
#X connect 19 0 20 0;
#X connect 19 1 14 0;
#X connect 19 2 21 0;
#X connect 19 2 23 0;
#X connect 20 0 28 0;
#X connect 21 0 15 0;
#X connect 22 0 15 0;
#X connect 23 0 17 1;
#X connect 24 0 29 0;
#X connect 25 0 24 0;
#X connect 26 0 24 0;
#X connect 27 0 12 0;
#X connect 28 0 13 0;
#X connect 29 1 19 0;
#X connect 29 2 27 0;
#X connect 29 3 30 0;
#X restore 150 366 pd fft;
#X obj 41 243 delay~ 448 448;
#X obj 93 271 delay~ 448 448;
#X obj 41 366 outlet~;
#X obj 150 413 outlet~;
#X connect 0 0 6 0;
#X connect 0 0 2 0;
#X connect 1 0 4 0;
#X connect 1 0 5 0;
#X connect 2 0 7 0;
#X connect 2 1 8 0;
#X connect 3 0 9 0;
#X connect 4 0 7 0;
#X connect 4 0 8 0;
#X connect 6 0 10 0;
#X connect 7 0 3 0;
#X connect 8 0 3 1;
#X restore 8 236 pd lp;
#X f 22;
#X obj 347 307 plugin_latency;
#X obj 347 208 moses 1;
#X obj 393 264 448;
#X obj 347 264 0;
#X obj 347 236 b;
#X obj 393 236 b;
#X obj 117 630 xfade.mc~ -lin;
#N canvas 0 50 450 300 norm-mag 0;
#X obj 209 18 inlet~;
#X obj 194 80 *~;
#X obj 152 18 inlet~;
#X obj 152 118 +~;
#X obj 152 153 sqrt~;
#X obj 152 79 *~;
#X obj 21 209 /~;
#X obj 76 209 /~;
#X obj 21 278 outlet~;
#X obj 76 278 outlet~;
#X obj 152 278 outlet~;
#X connect 0 0 1 1;
#X connect 0 0 1 0;
#X connect 0 0 7 0;
#X connect 1 0 3 1;
#X connect 2 0 5 0;
#X connect 2 0 5 1;
#X connect 2 0 6 0;
#X connect 3 0 4 0;
#X connect 4 0 6 1;
#X connect 4 0 7 1;
#X connect 4 0 10 0;
#X connect 5 0 3 0;
#X connect 6 0 8 0;
#X connect 7 0 9 0;
#X restore 8 307 pd norm-mag;
#X f 19;
#X obj 8 727 *~;
#X obj 8 346 -~, f 10;
#X obj 153 307 sigs~ 0.75 0.75;
#X obj 148 751 r~ orig;
#X obj 148 777 snake_out~;
#X obj -74 236 s~ orig 2;
#X obj 794 407 array define asdf 1;
#X obj 886 755 tabsend~ asdf;
#X obj 905 432 tabread~ asdf;
#X obj 886 697 bitsafe~;
#X obj 886 580 decay~ 10;
#X obj 1020 645 scope~ 200 100 256 3 128 0 1 0 0 0 0 77 77 77 228 228 228 183 183 183 0 empty;
#X obj 762 473 snake_out~;
#X obj 1011 522 scope~ 200 100 256 3 128 0 1 0 0 0 0 77 77 77 228 228 228 183 183 183 0 empty;
#X obj 1056 432 hsl 128 17 0 100 0 1 empty empty empty -2 -8 0 10 #e4e4e4 #4d4d4d #373737 12700 1;
#X obj 886 626 /~;
#X obj 886 535 min~;
#X obj 886 661 /~ 4;
#X obj 228 877 scope~ 200 100 256 3 128 -2 2 0 0 0 0 77 77 77 228 228 228 183 183 183 0 empty;
#X obj 932 463 sig~ 1;
#X obj 1105 838 biquad~ 0 0 -1 1 0;
#X obj 905 822;
#X obj 1045 906 spectrograph~;
#X obj 106 663 -~;
#X obj 357 60 hsl 128 17 -100 10 0 1 empty empty empty -2 -8 0 10 #e4e4e4 #4d4d4d #373737 547332 1;
#X obj 354 84 dbtoa;
#X obj 250 429 >~ 1;
#X obj 201 429 <~ 1;
#X obj 201 346 snake_out~;
#X obj 235 557 *~;
#X obj 336 407 -~;
#X obj 191 557 *~;
#X obj 201 490 /~ 40;
#X obj 250 490 decay~ 10;
#X obj 201 460 decay~ 10;
#X obj 250 515 /~ 40;
#X text 354 26 Threshold;
#X text 42 26 Gain;
#X connect 0 0 6 0;
#X connect 0 0 24 0;
#X connect 0 0 10 0;
#X connect 1 0 4 0;
#X connect 1 0 37 0;
#X connect 1 1 4 1;
#X connect 3 0 0 0;
#X connect 3 1 0 1;
#X connect 4 0 2 0;
#X connect 4 1 2 1;
#X connect 5 0 17 2;
#X connect 6 0 18 0;
#X connect 6 1 18 1;
#X connect 7 0 8 0;
#X connect 7 0 12 0;
#X connect 8 0 10 1;
#X connect 8 1 6 1;
#X connect 10 0 18 0;
#X connect 10 1 18 1;
#X connect 12 0 15 0;
#X connect 12 1 16 0;
#X connect 13 0 11 0;
#X connect 14 0 11 0;
#X connect 15 0 14 0;
#X connect 16 0 13 0;
#X connect 17 0 42 1;
#X connect 18 0 20 0;
#X connect 18 1 20 1;
#X connect 18 2 17 0;
#X connect 18 2 47 0;
#X connect 18 2 50 0;
#X connect 19 0 1 0;
#X connect 20 0 19 0;
#X connect 21 0 48 0;
#X connect 22 0 23 0;
#X connect 23 0 4 2;
#X connect 23 1 4 3;
#X connect 27 0 35 1;
#X connect 28 0 26 0;
#X connect 28 0 30 0;
#X connect 29 0 34 0;
#X connect 31 0 32 0;
#X connect 31 0 35 0;
#X connect 33 0 29 1;
#X connect 33 0 34 1;
#X connect 34 0 36 0;
#X connect 35 0 29 0;
#X connect 36 0 28 0;
#X connect 38 0 35 1;
#X connect 42 0 19 1;
#X connect 43 0 44 0;
#X connect 44 0 45 1;
#X connect 44 0 46 1;
#X connect 45 0 52 0;
#X connect 46 0 53 0;
#X connect 47 0 45 0;
#X connect 47 0 46 0;
#X connect 48 0 17 1;
#X connect 50 0 17 1;
#X connect 51 0 50 1;
#X connect 52 0 54 0;
#X connect 53 0 51 0;
#X connect 54 0 48 1;
