#N canvas 827 239 527 327 12;
#X obj 8 190 snake~ in;
#X obj 8 286 snake~ out;
#X obj 8 386 dac~;
#X obj 8 138 adc~ 1 2, f 9;
#N canvas 0 50 450 300 life-detector 0;
#X obj 299 130 abs~;
#X obj 299 201 mov.avg~ 4 4;
#X obj 299 228 >~ 1e-06;
#X obj 415 201 mov.avg~ 4 4;
#X obj 415 228 >~ 1e-06;
#X obj 299 59 inlet~;
#X obj 415 59 inlet~;
#X obj 87 59 inlet~;
#X obj 152 59 inlet~;
#X obj 415 130 abs~;
#X obj 87 346 *~;
#X obj 152 346 *~;
#X obj 87 372 outlet~;
#X obj 152 372 outlet~;
#X connect 0 0 1 0;
#X connect 1 0 2 0;
#X connect 2 0 10 1;
#X connect 3 0 4 0;
#X connect 4 0 11 1;
#X connect 5 0 0 0;
#X connect 6 0 9 0;
#X connect 7 0 10 0;
#X connect 8 0 11 0;
#X connect 9 0 3 0;
#X connect 10 0 12 0;
#X connect 11 0 13 0;
#X restore 8 327 pd life-detector;
#X f 33;
#X obj 45 52 hsl 128 17 -1 1 0 1 empty empty empty -2 -8 0 10 #e4e4e4 #4d4d4d #373737 12700 1;
#N canvas 0 50 450 300 biquad 0;
#X obj 44 119 hilbert~, f 13;
#N canvas 0 50 450 300 norm-mag 0;
#X obj 252 83 inlet~;
#X obj 237 145 *~;
#X obj 195 83 inlet~;
#X obj 195 183 +~;
#X obj 195 218 sqrt~;
#X obj 195 344 outlet~;
#X obj 195 144 *~;
#X obj 64 274 /~;
#X obj 119 274 /~;
#X obj 64 343 outlet~;
#X obj 119 343 outlet~;
#X connect 0 0 1 1;
#X connect 0 0 1 0;
#X connect 0 0 8 0;
#X connect 1 0 3 1;
#X connect 2 0 6 0;
#X connect 2 0 6 1;
#X connect 2 0 7 0;
#X connect 3 0 4 0;
#X connect 4 0 5 0;
#X connect 4 0 7 1;
#X connect 4 0 8 1;
#X connect 6 0 3 0;
#X connect 7 0 9 0;
#X connect 8 0 10 0;
#X restore 44 145 pd norm-mag;
#X obj 44 171 complex-mod~;
#X obj 283 119 hilbert~, f 13;
#N canvas 0 50 450 300 norm-mag 0;
#X obj 252 83 inlet~;
#X obj 237 145 *~;
#X obj 195 83 inlet~;
#X obj 195 183 +~;
#X obj 195 218 sqrt~;
#X obj 195 344 outlet~;
#X obj 195 144 *~;
#X obj 64 274 /~;
#X obj 119 274 /~;
#X obj 64 343 outlet~;
#X obj 119 343 outlet~;
#X connect 0 0 1 1;
#X connect 0 0 1 0;
#X connect 0 0 8 0;
#X connect 1 0 3 1;
#X connect 2 0 6 0;
#X connect 2 0 6 1;
#X connect 2 0 7 0;
#X connect 3 0 4 0;
#X connect 4 0 5 0;
#X connect 4 0 7 1;
#X connect 4 0 8 1;
#X connect 6 0 3 0;
#X connect 7 0 9 0;
#X connect 8 0 10 0;
#X restore 283 145 pd norm-mag;
#X obj 283 171 complex-mod~;
#X obj 44 252 *~;
#X obj 283 252 *~;
#X obj 182 179 sig~ 1;
#X obj 63 225 xfade~ -lin;
#X obj 302 225 xfade~ -lin;
#X obj 44 33 inlet~;
#X obj 44 59 snake~ out;
#X obj 409 33 inlet;
#X obj 44 278 snake~ in, f 37;
#X obj 44 304 outlet~;
#X obj 489 33 inlet;
#X obj 489 59 switch~;
#X connect 0 0 1 0;
#X connect 0 1 1 1;
#X connect 1 0 2 0;
#X connect 1 1 2 1;
#X connect 1 2 9 0;
#X connect 2 0 6 0;
#X connect 3 0 4 0;
#X connect 3 1 4 1;
#X connect 4 0 5 0;
#X connect 4 1 5 1;
#X connect 4 2 10 0;
#X connect 5 0 7 0;
#X connect 6 0 14 0;
#X connect 7 0 14 1;
#X connect 8 0 9 1;
#X connect 8 0 10 1;
#X connect 9 0 6 1;
#X connect 10 0 7 1;
#X connect 11 0 12 0;
#X connect 12 0 0 0;
#X connect 12 1 3 0;
#X connect 13 0 10 2;
#X connect 13 0 9 2;
#X connect 14 0 15 0;
#X connect 16 0 17 0;
#X restore 211 236 pd biquad;
#N canvas 733 172 450 300 fft 0;
#X obj 41 676 outlet~;
#X obj 41 107 *~, f 6;
#X obj 41 192 rfft~, f 19;
#X obj 41 373 rifft~, f 18;
#X obj 41 221 car2pol~, f 20;
#X obj 41 345 pol2car~, f 19;
#X obj 41 163 /~, f 6;
#X obj 63 78 tabreceive~ window;
#X obj 103 107 r norm;
#X obj 41 38 inlet~, f 7;
#N canvas 0 0 450 250 (subpatch) 0;
#X array window 512 float 2;
#X coords 0 1 512 -1 200 140 1;
#X restore 476 991 graph;
#X obj 476 898 else/tabgen window;
#X obj 258 1162 s norm;
#X obj 41 893 plugin_latency;
#X obj 284 895 until;
#X obj 284 1043 avg;
#X obj 284 969 tabread window;
#X obj 284 932 f;
#X obj 325 932 + 1;
#X obj 258 857 t b f b;
#X obj 258 1085 f;
#X msg 214 895 clear;
#X obj 284 1006 *;
#X obj 325 895 0;
#X obj 41 786 512;
#X obj 41 750 loadbang, f 10;
#X msg 124 750 bang;
#X obj 41 857 - 64;
#X msg 476 857 hanning;
#X obj 258 1121 expr $f1*512*4;
#X obj 41 444 *~, f 6;
#X obj 63 416 tabreceive~ window;
#X obj 41 819 t f f f f, f 96;
#X msg 694 857 \; window resize \$1;
#X obj 350 289 +~ 1.5708;
#X obj 241 373 rifft~, f 18;
#X obj 241 345 pol2car~, f 19;
#X obj 241 444 *~, f 6;
#X obj 263 416 tabreceive~ window;
#X obj 350 318 wrap2~ -3.1415 3.1415;
#X obj 41 485 car2pol~, f 32;
#X obj 41 647 pol2car~, f 32;
#X obj 77 533 sigs~ 0.25 0.25;
#X obj 384 38 inlet;
#X obj 41 617 xfade.mc~ -lin;
#X obj 552 38 inlet;
#X obj 552 64 switch~ 512 4;
#X connect 1 0 6 0;
#X connect 2 0 4 0;
#X connect 2 1 4 1;
#X connect 3 0 30 0;
#X connect 4 0 5 0;
#X connect 4 0 36 0;
#X connect 4 1 5 1;
#X connect 4 1 34 0;
#X connect 5 0 3 0;
#X connect 5 1 3 1;
#X connect 6 0 2 0;
#X connect 7 0 1 1;
#X connect 8 0 6 1;
#X connect 9 0 1 0;
#X connect 14 0 17 0;
#X connect 15 0 20 1;
#X connect 16 0 22 0;
#X connect 16 0 22 1;
#X connect 17 0 18 0;
#X connect 17 0 16 0;
#X connect 18 0 17 1;
#X connect 19 0 20 0;
#X connect 19 1 14 0;
#X connect 19 2 21 0;
#X connect 19 2 23 0;
#X connect 20 0 29 0;
#X connect 21 0 15 0;
#X connect 22 0 15 0;
#X connect 23 0 17 1;
#X connect 24 0 32 0;
#X connect 25 0 24 0;
#X connect 26 0 24 0;
#X connect 27 0 13 0;
#X connect 28 0 11 0;
#X connect 29 0 12 0;
#X connect 30 0 40 0;
#X connect 31 0 30 1;
#X connect 32 0 27 0;
#X connect 32 1 19 0;
#X connect 32 2 28 0;
#X connect 32 3 33 0;
#X connect 34 0 39 0;
#X connect 35 0 37 0;
#X connect 36 0 35 0;
#X connect 36 1 35 1;
#X connect 37 0 40 1;
#X connect 38 0 37 1;
#X connect 39 0 36 1;
#X connect 40 0 44 0;
#X connect 40 1 41 1;
#X connect 41 0 0 0;
#X connect 42 0 44 1;
#X connect 43 0 44 2;
#X connect 44 0 41 0;
#X connect 45 0 46 0;
#X restore 8 236 pd fft;
#X f 22;
#X obj 211 52 tgl 25 0 empty empty empty 17 7 0 10 #e4e4e4 #4d4d4d #373737 0 1;
#X obj 218 129 expr $f1 \; 1-$f1, f 9;
#X text 211 28 Linear phase;
#X text 42 28 Crush;
#X connect 0 0 7 0;
#X connect 0 0 6 0;
#X connect 1 0 4 0;
#X connect 1 1 4 1;
#X connect 3 0 0 0;
#X connect 3 0 4 2;
#X connect 3 1 0 1;
#X connect 3 1 4 3;
#X connect 4 0 2 0;
#X connect 4 1 2 1;
#X connect 5 0 7 1;
#X connect 5 0 6 1;
#X connect 6 0 1 0;
#X connect 7 0 1 0;
#X connect 8 0 9 0;
#X connect 9 0 7 2;
#X connect 9 1 6 2;
